<?xml version="1.0" encoding="UTF-8" standalone="no"?>
<!-- Created with Inkscape (http://www.inkscape.org/) -->

<svg
   xmlns:dc="http://purl.org/dc/elements/1.1/"
   xmlns:cc="http://creativecommons.org/ns#"
   xmlns:rdf="http://www.w3.org/1999/02/22-rdf-syntax-ns#"
   xmlns:svg="http://www.w3.org/2000/svg"
   xmlns="http://www.w3.org/2000/svg"
   xmlns:sodipodi="http://sodipodi.sourceforge.net/DTD/sodipodi-0.dtd"
   xmlns:inkscape="http://www.inkscape.org/namespaces/inkscape"
   width="744.09448819"
   height="1052.3622047"
   id="svg2"
   version="1.1"
   inkscape:version="0.48.4 r9939"
   sodipodi:docname="about_icon.svg"
   inkscape:export-filename="/home/luis-diaz/Escritorio/about_icon.png"
   inkscape:export-xdpi="90"
   inkscape:export-ydpi="90">
  <defs
     id="defs4">
    <filter
       inkscape:collect="always"
       id="filter3818">
      <feGaussianBlur
         inkscape:collect="always"
         stdDeviation="0.76367532"
         id="feGaussianBlur3820" />
    </filter>
    <filter
       inkscape:collect="always"
       id="filter3842">
      <feGaussianBlur
         inkscape:collect="always"
         stdDeviation="0.3285"
         id="feGaussianBlur3844" />
    </filter>
  </defs>
  <sodipodi:namedview
     id="base"
     pagecolor="#ffffff"
     bordercolor="#666666"
     borderopacity="1.0"
     inkscape:pageopacity="0.0"
     inkscape:pageshadow="2"
     inkscape:zoom="0.7"
     inkscape:cx="591.97614"
     inkscape:cy="511.47729"
     inkscape:document-units="px"
     inkscape:current-layer="layer1"
     showgrid="false"
     inkscape:window-width="1920"
     inkscape:window-height="1056"
     inkscape:window-x="0"
     inkscape:window-y="24"
     inkscape:window-maximized="1" />
  <metadata
     id="metadata7">
    <rdf:RDF>
      <cc:Work
         rdf:about="">
        <dc:format>image/svg+xml</dc:format>
        <dc:type
           rdf:resource="http://purl.org/dc/dcmitype/StillImage" />
        <dc:title></dc:title>
      </cc:Work>
    </rdf:RDF>
  </metadata>
  <g
     inkscape:label="Layer 1"
     inkscape:groupmode="layer"
     id="layer1">
    <path
       inkscape:export-ydpi="90"
       inkscape:export-xdpi="90"
       inkscape:export-filename="/home/luis-diaz/Escritorio/DIWO/Curso Arduino + protocoder/Protocoder/about_icon.svg.png"
       transform="matrix(1.8264985,0,0,1.8264985,-288.07785,-469.50785)"
       d="m 407.09147,540.71991 a 27.274118,27.274118 0 1 1 -54.54824,0 27.274118,27.274118 0 1 1 54.54824,0 z"
       sodipodi:ry="27.274118"
       sodipodi:rx="27.274118"
       sodipodi:cy="540.71991"
       sodipodi:cx="379.81735"
       id="path3757"
       style="fill:#000000;fill-opacity:0.52261305;stroke:none;filter:url(#filter3818)"
       sodipodi:type="arc" />
    <path
       sodipodi:type="arc"
       style="fill:#0000ff;fill-opacity:1;stroke:none"
       id="path3755"
       sodipodi:cx="379.81735"
       sodipodi:cy="540.71991"
       sodipodi:rx="27.274118"
       sodipodi:ry="27.274118"
       d="m 407.09147,540.71991 a 27.274118,27.274118 0 1 1 -54.54824,0 27.274118,27.274118 0 1 1 54.54824,0 z"
       transform="matrix(1.8264985,0,0,1.8264985,-291.33353,-472.31998)"
       inkscape:export-filename="/home/luis-diaz/Escritorio/DIWO/Curso Arduino + protocoder/Protocoder/about_icon.svg.png"
       inkscape:export-xdpi="90"
       inkscape:export-ydpi="90" />
    <flowRoot
       xml:space="preserve"
       id="flowRoot3759"
       style="font-size:24px;font-style:normal;font-variant:normal;font-weight:normal;font-stretch:normal;text-align:start;line-height:125%;letter-spacing:0px;word-spacing:0px;text-anchor:start;fill:#000000;fill-opacity:1;stroke:none;font-family:Lato;-inkscape-font-specification:Sans"
       transform="matrix(3.4237881,0,0,3.4237881,-850.32413,-1333.9986)"
       inkscape:export-filename="/home/luis-diaz/Escritorio/DIWO/Curso Arduino + protocoder/Protocoder/about_icon.svg.png"
       inkscape:export-xdpi="90"
       inkscape:export-ydpi="90"><flowRegion
         id="flowRegion3761"><rect
           id="rect3763"
           width="36.870567"
           height="36.36549"
           x="361.12955"
           y="524.05243"
           style="fill:#000000;fill-opacity:1" /></flowRegion><flowPara
         id="flowPara3765">?</flowPara></flowRoot>    <g
       transform="matrix(3.4237881,0,0,3.4237881,-849.1994,-1332.8738)"
       style="font-size:24px;font-style:normal;font-variant:normal;font-weight:normal;font-stretch:normal;text-align:start;line-height:125%;letter-spacing:0px;word-spacing:0px;text-anchor:start;fill:#000000;fill-opacity:0.78391957;stroke:none;filter:url(#filter3842);font-family:Lato;-inkscape-font-specification:Sans"
       id="flowRoot2988"
       inkscape:export-filename="/home/luis-diaz/Escritorio/DIWO/Curso Arduino + protocoder/Protocoder/about_icon.svg.png"
       inkscape:export-xdpi="90"
       inkscape:export-ydpi="90">
      <path
         d="m 361.533,533.0775 c 0.248,-0.23198 0.52,-0.45198 0.816,-0.66 0.304,-0.20798 0.632,-0.39198 0.984,-0.552 0.36,-0.15998 0.744,-0.28398 1.152,-0.372 0.416,-0.096 0.864,-0.14398 1.344,-0.144 0.63199,2e-5 1.21599,0.092 1.752,0.276 0.54399,0.18402 1.01199,0.44402 1.404,0.78 0.39199,0.33602 0.69999,0.74402 0.924,1.224 0.22399,0.48001 0.33599,1.02001 0.336,1.62 -1e-5,0.60801 -0.092,1.13201 -0.276,1.572 -0.17601,0.44001 -0.40401,0.82801 -0.684,1.164 -0.27201,0.32801 -0.57201,0.61601 -0.9,0.864 -0.32801,0.24001 -0.63601,0.46801 -0.924,0.684 -0.28001,0.21601 -0.52401,0.43201 -0.732,0.648 -0.20001,0.21601 -0.31601,0.45601 -0.348,0.72 l -0.216,1.836 -1.464,0 -0.144,-1.992 0,-0.132 c 0,-0.33599 0.088,-0.63199 0.264,-0.888 0.184,-0.26399 0.412,-0.50799 0.684,-0.732 0.28,-0.23199 0.576,-0.45999 0.888,-0.684 0.31999,-0.23199 0.61599,-0.48399 0.888,-0.756 0.27999,-0.27999 0.50799,-0.59599 0.684,-0.948 0.18399,-0.35199 0.27599,-0.76799 0.276,-1.248 -10e-6,-0.34399 -0.068,-0.65599 -0.204,-0.936 -0.13601,-0.27999 -0.32001,-0.51599 -0.552,-0.708 -0.23201,-0.19998 -0.50801,-0.35198 -0.828,-0.456 -0.31201,-0.10398 -0.648,-0.15598 -1.008,-0.156 -0.488,2e-5 -0.908,0.06 -1.26,0.18 -0.344,0.12002 -0.636,0.25202 -0.876,0.396 -0.24,0.14401 -0.436,0.27601 -0.588,0.396 -0.144,0.12001 -0.264,0.18001 -0.36,0.18 -0.2,10e-6 -0.356,-0.092 -0.468,-0.276 l -0.564,-0.9 m 2.352,14.34 c 0,-0.208 0.036,-0.404 0.108,-0.588 0.08,-0.184 0.184,-0.344 0.312,-0.48 0.136,-0.136 0.296,-0.244 0.48,-0.324 0.184,-0.08 0.38,-0.12 0.588,-0.12 0.208,0 0.404,0.04 0.588,0.12 0.18399,0.08 0.34399,0.188 0.48,0.324 0.13599,0.136 0.23999,0.296 0.312,0.48 0.08,0.184 0.11999,0.38 0.12,0.588 -10e-6,0.216 -0.04,0.416 -0.12,0.6 -0.072,0.176 -0.17601,0.332 -0.312,0.468 -0.13601,0.136 -0.29601,0.24 -0.48,0.312 -0.184,0.08 -0.38,0.12 -0.588,0.12 -0.208,0 -0.404,-0.04 -0.588,-0.12 -0.184,-0.072 -0.344,-0.176 -0.48,-0.312 -0.128,-0.136 -0.232,-0.292 -0.312,-0.468 -0.072,-0.184 -0.108,-0.384 -0.108,-0.6"
         style="fill:#000000;fill-opacity:0.78391957"
         id="path3016"
         inkscape:connector-curvature="0" />
    </g>
  </g>
</svg>
