solid OpenSCAD_Model
  facet normal -0.951057 0.309017 0
    outer loop
      vertex -14.6516 -7.93103 86
      vertex -14.6516 -7.93103 90
      vertex -14.1682 -6.44325 86
    endloop
  endfacet
  facet normal -0.951057 0.309017 0
    outer loop
      vertex -14.1682 -6.44325 86
      vertex -14.6516 -7.93103 90
      vertex -14.1682 -6.44325 90
    endloop
  endfacet
  facet normal -1 -7.85046e-17 0
    outer loop
      vertex -14.6516 -7.93103 86
      vertex -14.6516 -9.49538 86
      vertex -14.6516 -7.93103 90
    endloop
  endfacet
  facet normal -1 -7.85046e-17 0
    outer loop
      vertex -14.6516 -7.93103 90
      vertex -14.6516 -9.49538 86
      vertex -14.6516 -9.49538 90
    endloop
  endfacet
  facet normal 0 0 -1
    outer loop
      vertex -4.53812 20.6718 86
      vertex -2.8466 23 86
      vertex -14.1682 -6.44325 86
    endloop
  endfacet
  facet normal 0 0 -1
    outer loop
      vertex -14.1682 -6.44325 86
      vertex -2.8466 23 86
      vertex 0 23 86
    endloop
  endfacet
  facet normal 0 0 -1
    outer loop
      vertex -14.1682 -6.44325 86
      vertex 0 23 86
      vertex 0 0 86
    endloop
  endfacet
  facet normal 0 0 -1
    outer loop
      vertex -14.1682 -6.44325 86
      vertex 0 0 86
      vertex 24 0 86
    endloop
  endfacet
  facet normal 0 0 -1
    outer loop
      vertex 24 35 86
      vertex 21.5226 35 86
      vertex 30.4433 38.1682 86
    endloop
  endfacet
  facet normal 0 0 -1
    outer loop
      vertex 24 35 86
      vertex 30.4433 38.1682 86
      vertex 24 0 86
    endloop
  endfacet
  facet normal 0 0 -1
    outer loop
      vertex 30.9354 33.9948 86
      vertex 30.4433 38.1682 86
      vertex 31.931 38.6516 86
    endloop
  endfacet
  facet normal 0 0 -1
    outer loop
      vertex 31.4404 34.986 86
      vertex 31.931 38.6516 86
      vertex 33.4954 38.6516 86
    endloop
  endfacet
  facet normal 0 0 -1
    outer loop
      vertex 33.5304 35.317 86
      vertex 33.4954 38.6516 86
      vertex 34.9832 38.1682 86
    endloop
  endfacet
  facet normal 0 0 -1
    outer loop
      vertex 34.491 33.9948 86
      vertex 34.9832 38.1682 86
      vertex 36.2487 37.2487 86
    endloop
  endfacet
  facet normal 0 0 -1
    outer loop
      vertex 24 0 86
      vertex 36.2487 37.2487 86
      vertex 37.1682 35.9832 86
    endloop
  endfacet
  facet normal 0 0 -1
    outer loop
      vertex 24 0 86
      vertex 37.1682 35.9832 86
      vertex 37.6516 34.4954 86
    endloop
  endfacet
  facet normal 0 0 -1
    outer loop
      vertex 24 0 86
      vertex 37.6516 34.4954 86
      vertex 37.6516 32.931 86
    endloop
  endfacet
  facet normal 0 0 -1
    outer loop
      vertex 24 0 86
      vertex 37.6516 32.931 86
      vertex 37.1682 31.4433 86
    endloop
  endfacet
  facet normal 0 0 -1
    outer loop
      vertex 24 0 86
      vertex 37.1682 31.4433 86
      vertex 27.5381 4.32817 86
    endloop
  endfacet
  facet normal 0 0 -1
    outer loop
      vertex 24 0 86
      vertex 27.5381 4.32817 86
      vertex 24.2279 -0.227922 86
    endloop
  endfacet
  facet normal 0 0 -1
    outer loop
      vertex 24 0 86
      vertex 24.2279 -0.227922 86
      vertex -14.1682 -6.44325 86
    endloop
  endfacet
  facet normal 0 0 -1
    outer loop
      vertex -14.1682 -6.44325 86
      vertex 24.2279 -0.227922 86
      vertex 19.6718 -3.53812 86
    endloop
  endfacet
  facet normal 0 0 -1
    outer loop
      vertex -9.43162 -10.491 86
      vertex 19.6718 -3.53812 86
      vertex -7.44325 -13.1682 86
    endloop
  endfacet
  facet normal 0 0 -1
    outer loop
      vertex -10.986 -9.986 86
      vertex -7.44325 -13.1682 86
      vertex -8.93103 -13.6516 86
    endloop
  endfacet
  facet normal 0 0 -1
    outer loop
      vertex -14.1682 -6.44325 86
      vertex -8.93103 -13.6516 86
      vertex -10.4954 -13.6516 86
    endloop
  endfacet
  facet normal 0 0 -1
    outer loop
      vertex -14.1682 -6.44325 86
      vertex -10.4954 -13.6516 86
      vertex -11.9832 -13.1682 86
    endloop
  endfacet
  facet normal 0 0 -1
    outer loop
      vertex -14.1682 -6.44325 86
      vertex -11.9832 -13.1682 86
      vertex -13.2487 -12.2487 86
    endloop
  endfacet
  facet normal 0 0 -1
    outer loop
      vertex -14.1682 -6.44325 86
      vertex -13.2487 -12.2487 86
      vertex -14.1682 -10.9832 86
    endloop
  endfacet
  facet normal 0 0 -1
    outer loop
      vertex -14.1682 -6.44325 86
      vertex -14.1682 -10.9832 86
      vertex -14.6516 -9.49538 86
    endloop
  endfacet
  facet normal 0 0 -1
    outer loop
      vertex -14.1682 -6.44325 86
      vertex -14.6516 -9.49538 86
      vertex -14.6516 -7.93103 86
    endloop
  endfacet
  facet normal 0 0 -1
    outer loop
      vertex -10.5304 -7.10939 86
      vertex -14.1682 -6.44325 86
      vertex -9.99479 -6.93536 86
    endloop
  endfacet
  facet normal 0 0 -1
    outer loop
      vertex -9.99479 -10.491 86
      vertex -7.44325 -13.1682 86
      vertex -10.5304 -10.317 86
    endloop
  endfacet
  facet normal 0 0 -1
    outer loop
      vertex -14.1682 -6.44325 86
      vertex -11.317 -9.53039 86
      vertex -8.93103 -13.6516 86
    endloop
  endfacet
  facet normal 0 0 -1
    outer loop
      vertex -10.5304 -10.317 86
      vertex -7.44325 -13.1682 86
      vertex -10.986 -9.986 86
    endloop
  endfacet
  facet normal 0 0 -1
    outer loop
      vertex -11.317 -9.53039 86
      vertex -10.986 -9.986 86
      vertex -8.93103 -13.6516 86
    endloop
  endfacet
  facet normal 0 0 -1
    outer loop
      vertex -8.10939 -7.89602 86
      vertex 19.6718 -3.53812 86
      vertex -7.93536 -8.43162 86
    endloop
  endfacet
  facet normal 0 0 -1
    outer loop
      vertex -8.44041 -9.986 86
      vertex 19.6718 -3.53812 86
      vertex -8.89602 -10.317 86
    endloop
  endfacet
  facet normal 0 0 -1
    outer loop
      vertex -8.89602 -10.317 86
      vertex 19.6718 -3.53812 86
      vertex -9.43162 -10.491 86
    endloop
  endfacet
  facet normal 0 0 -1
    outer loop
      vertex -9.99479 -10.491 86
      vertex -9.43162 -10.491 86
      vertex -7.44325 -13.1682 86
    endloop
  endfacet
  facet normal 0 0 -1
    outer loop
      vertex -8.10939 -9.53039 86
      vertex 19.6718 -3.53812 86
      vertex -8.44041 -9.986 86
    endloop
  endfacet
  facet normal 0 0 -1
    outer loop
      vertex -7.93536 -8.99479 86
      vertex 19.6718 -3.53812 86
      vertex -8.10939 -9.53039 86
    endloop
  endfacet
  facet normal 0 0 -1
    outer loop
      vertex -7.93536 -8.43162 86
      vertex 19.6718 -3.53812 86
      vertex -7.93536 -8.99479 86
    endloop
  endfacet
  facet normal 0 0 -1
    outer loop
      vertex -8.44041 -7.44041 86
      vertex 19.6718 -3.53812 86
      vertex -8.10939 -7.89602 86
    endloop
  endfacet
  facet normal 0 0 -1
    outer loop
      vertex -8.89602 -7.10939 86
      vertex 19.6718 -3.53812 86
      vertex -8.44041 -7.44041 86
    endloop
  endfacet
  facet normal 0 0 -1
    outer loop
      vertex -9.43162 -6.93536 86
      vertex 19.6718 -3.53812 86
      vertex -8.89602 -7.10939 86
    endloop
  endfacet
  facet normal 0 0 -1
    outer loop
      vertex -14.1682 -6.44325 86
      vertex 19.6718 -3.53812 86
      vertex -9.43162 -6.93536 86
    endloop
  endfacet
  facet normal 0 0 -1
    outer loop
      vertex -14.1682 -6.44325 86
      vertex -9.43162 -6.93536 86
      vertex -9.99479 -6.93536 86
    endloop
  endfacet
  facet normal 0 0 -1
    outer loop
      vertex -10.986 -7.44041 86
      vertex -14.1682 -6.44325 86
      vertex -10.5304 -7.10939 86
    endloop
  endfacet
  facet normal 0 0 -1
    outer loop
      vertex 30.9354 33.9948 86
      vertex 31.931 38.6516 86
      vertex 31.1094 34.5304 86
    endloop
  endfacet
  facet normal 0 0 -1
    outer loop
      vertex 30.9354 33.4316 86
      vertex 24 0 86
      vertex 30.9354 33.9948 86
    endloop
  endfacet
  facet normal 0 0 -1
    outer loop
      vertex -14.1682 -6.44325 86
      vertex -10.986 -7.44041 86
      vertex -11.317 -7.89602 86
    endloop
  endfacet
  facet normal 0 0 -1
    outer loop
      vertex -14.1682 -6.44325 86
      vertex -11.317 -7.89602 86
      vertex -11.491 -8.43162 86
    endloop
  endfacet
  facet normal 0 0 -1
    outer loop
      vertex -14.1682 -6.44325 86
      vertex -11.491 -8.43162 86
      vertex -11.491 -8.99479 86
    endloop
  endfacet
  facet normal 0 0 -1
    outer loop
      vertex 24 0 86
      vertex 30.9354 33.4316 86
      vertex 31.1094 32.896 86
    endloop
  endfacet
  facet normal 0 0 -1
    outer loop
      vertex 24 0 86
      vertex 31.1094 32.896 86
      vertex 31.4404 32.4404 86
    endloop
  endfacet
  facet normal 0 0 -1
    outer loop
      vertex 33.5304 35.317 86
      vertex 34.9832 38.1682 86
      vertex 33.986 34.986 86
    endloop
  endfacet
  facet normal 0 0 -1
    outer loop
      vertex 33.5304 32.1094 86
      vertex 24 0 86
      vertex 32.9948 31.9354 86
    endloop
  endfacet
  facet normal 0 0 -1
    outer loop
      vertex 24 0 86
      vertex 31.896 32.1094 86
      vertex 32.4316 31.9354 86
    endloop
  endfacet
  facet normal 0 0 -1
    outer loop
      vertex 24 0 86
      vertex 32.4316 31.9354 86
      vertex 32.9948 31.9354 86
    endloop
  endfacet
  facet normal 0 0 -1
    outer loop
      vertex 34.491 33.9948 86
      vertex 36.2487 37.2487 86
      vertex 34.491 33.4316 86
    endloop
  endfacet
  facet normal 0 0 -1
    outer loop
      vertex 24 0 86
      vertex 33.5304 32.1094 86
      vertex 33.986 32.4404 86
    endloop
  endfacet
  facet normal 0 0 -1
    outer loop
      vertex 24 0 86
      vertex 33.986 32.4404 86
      vertex 34.317 32.896 86
    endloop
  endfacet
  facet normal 0 0 -1
    outer loop
      vertex 24 0 86
      vertex 34.317 32.896 86
      vertex 36.2487 37.2487 86
    endloop
  endfacet
  facet normal 0 0 -1
    outer loop
      vertex 34.317 32.896 86
      vertex 34.491 33.4316 86
      vertex 36.2487 37.2487 86
    endloop
  endfacet
  facet normal 0 0 -1
    outer loop
      vertex 34.317 34.5304 86
      vertex 34.9832 38.1682 86
      vertex 34.491 33.9948 86
    endloop
  endfacet
  facet normal 0 0 -1
    outer loop
      vertex 33.986 34.986 86
      vertex 34.9832 38.1682 86
      vertex 34.317 34.5304 86
    endloop
  endfacet
  facet normal 0 0 -1
    outer loop
      vertex 32.9948 35.491 86
      vertex 33.4954 38.6516 86
      vertex 33.5304 35.317 86
    endloop
  endfacet
  facet normal 0 0 -1
    outer loop
      vertex 32.4316 35.491 86
      vertex 33.4954 38.6516 86
      vertex 32.9948 35.491 86
    endloop
  endfacet
  facet normal 0 0 -1
    outer loop
      vertex 31.896 35.317 86
      vertex 33.4954 38.6516 86
      vertex 32.4316 35.491 86
    endloop
  endfacet
  facet normal 0 0 -1
    outer loop
      vertex 31.4404 34.986 86
      vertex 33.4954 38.6516 86
      vertex 31.896 35.317 86
    endloop
  endfacet
  facet normal 0 0 -1
    outer loop
      vertex 31.1094 34.5304 86
      vertex 31.931 38.6516 86
      vertex 31.4404 34.986 86
    endloop
  endfacet
  facet normal 0 0 -1
    outer loop
      vertex 31.896 32.1094 86
      vertex 24 0 86
      vertex 31.4404 32.4404 86
    endloop
  endfacet
  facet normal 0 0 -1
    outer loop
      vertex 24 0 86
      vertex 30.4433 38.1682 86
      vertex 30.9354 33.9948 86
    endloop
  endfacet
  facet normal 0 0 -1
    outer loop
      vertex -11.317 -9.53039 86
      vertex -14.1682 -6.44325 86
      vertex -11.491 -8.99479 86
    endloop
  endfacet
  facet normal -0.942333 0.334676 0
    outer loop
      vertex -14.1682 -6.44325 86
      vertex -14.1682 -6.44325 90
      vertex -4.53812 20.6718 86
    endloop
  endfacet
  facet normal -0.942333 0.334676 0
    outer loop
      vertex -4.53812 20.6718 86
      vertex -14.1682 -6.44325 90
      vertex -4.53812 20.6718 90
    endloop
  endfacet
  facet normal 0 0 1
    outer loop
      vertex -14.1682 -6.44325 90
      vertex -14.6516 -7.93103 90
      vertex -14.6516 -9.49538 90
    endloop
  endfacet
  facet normal 0 0 1
    outer loop
      vertex -13.2487 -12.2487 90
      vertex -14.1682 -6.44325 90
      vertex -14.1682 -10.9832 90
    endloop
  endfacet
  facet normal 0 0 1
    outer loop
      vertex -14.1682 -10.9832 90
      vertex -14.1682 -6.44325 90
      vertex -14.6516 -9.49538 90
    endloop
  endfacet
  facet normal 0 0 1
    outer loop
      vertex -11.9832 -13.1682 90
      vertex -14.1682 -6.44325 90
      vertex -13.2487 -12.2487 90
    endloop
  endfacet
  facet normal 0 0 1
    outer loop
      vertex -10.4954 -13.6516 90
      vertex -14.1682 -6.44325 90
      vertex -11.9832 -13.1682 90
    endloop
  endfacet
  facet normal 0 0 1
    outer loop
      vertex -8.93103 -13.6516 90
      vertex -14.1682 -6.44325 90
      vertex -10.4954 -13.6516 90
    endloop
  endfacet
  facet normal 0 0 1
    outer loop
      vertex -10.986 -9.986 90
      vertex -14.1682 -6.44325 90
      vertex -8.93103 -13.6516 90
    endloop
  endfacet
  facet normal 0 0 1
    outer loop
      vertex 24.2279 -0.227922 90
      vertex -14.1682 -6.44325 90
      vertex 19.6718 -3.53812 90
    endloop
  endfacet
  facet normal 0 0 1
    outer loop
      vertex 27.5381 4.32817 90
      vertex -14.1682 -6.44325 90
      vertex 24.2279 -0.227922 90
    endloop
  endfacet
  facet normal 0 0 1
    outer loop
      vertex 19 4 90
      vertex -14.1682 -6.44325 90
      vertex 27.5381 4.32817 90
    endloop
  endfacet
  facet normal 0 0 1
    outer loop
      vertex 33.5304 35.317 90
      vertex 33.986 34.986 90
      vertex 36.2487 37.2487 90
    endloop
  endfacet
  facet normal 0 0 1
    outer loop
      vertex 19 21 90
      vertex 19 4 90
      vertex 27.5381 4.32817 90
    endloop
  endfacet
  facet normal 0 0 1
    outer loop
      vertex 19 21 90
      vertex 27.5381 4.32817 90
      vertex 37.1682 31.4433 90
    endloop
  endfacet
  facet normal 0 0 1
    outer loop
      vertex 0 35 90
      vertex 0 26.1201 90
      vertex 21.5226 35 90
    endloop
  endfacet
  facet normal 0 0 1
    outer loop
      vertex -1.22792 25.2279 90
      vertex -14.1682 -6.44325 90
      vertex 0 26.1201 90
    endloop
  endfacet
  facet normal 0 0 1
    outer loop
      vertex -4.53812 20.6718 90
      vertex -14.1682 -6.44325 90
      vertex -1.22792 25.2279 90
    endloop
  endfacet
  facet normal 0 0 1
    outer loop
      vertex 4 21 90
      vertex 31.931 38.6516 90
      vertex 30.4433 38.1682 90
    endloop
  endfacet
  facet normal 0 0 1
    outer loop
      vertex -11.491 -8.43162 90
      vertex -14.1682 -6.44325 90
      vertex -11.491 -8.99479 90
    endloop
  endfacet
  facet normal 0 0 1
    outer loop
      vertex -9.99479 -10.491 90
      vertex -10.5304 -10.317 90
      vertex -7.44325 -13.1682 90
    endloop
  endfacet
  facet normal 0 0 1
    outer loop
      vertex -11.317 -7.89602 90
      vertex -14.1682 -6.44325 90
      vertex -11.491 -8.43162 90
    endloop
  endfacet
  facet normal 0 0 1
    outer loop
      vertex -10.986 -7.44041 90
      vertex -14.1682 -6.44325 90
      vertex -11.317 -7.89602 90
    endloop
  endfacet
  facet normal 0 0 1
    outer loop
      vertex -10.5304 -7.10939 90
      vertex -14.1682 -6.44325 90
      vertex -10.986 -7.44041 90
    endloop
  endfacet
  facet normal 0 0 1
    outer loop
      vertex -9.99479 -6.93536 90
      vertex -14.1682 -6.44325 90
      vertex -10.5304 -7.10939 90
    endloop
  endfacet
  facet normal 0 0 1
    outer loop
      vertex 19.6718 -3.53812 90
      vertex -14.1682 -6.44325 90
      vertex -9.99479 -6.93536 90
    endloop
  endfacet
  facet normal 0 0 1
    outer loop
      vertex -8.89602 -7.10939 90
      vertex -8.44041 -7.44041 90
      vertex 19.6718 -3.53812 90
    endloop
  endfacet
  facet normal 0 0 1
    outer loop
      vertex 19.6718 -3.53812 90
      vertex -9.99479 -6.93536 90
      vertex -9.43162 -6.93536 90
    endloop
  endfacet
  facet normal 0 0 1
    outer loop
      vertex -8.44041 -7.44041 90
      vertex -8.10939 -7.89602 90
      vertex 19.6718 -3.53812 90
    endloop
  endfacet
  facet normal 0 0 1
    outer loop
      vertex 4 21 90
      vertex 33.4954 38.6516 90
      vertex 31.931 38.6516 90
    endloop
  endfacet
  facet normal 0 0 1
    outer loop
      vertex 19.6718 -3.53812 90
      vertex -7.93536 -8.43162 90
      vertex -7.44325 -13.1682 90
    endloop
  endfacet
  facet normal 0 0 1
    outer loop
      vertex -7.93536 -8.43162 90
      vertex -7.93536 -8.99479 90
      vertex -7.44325 -13.1682 90
    endloop
  endfacet
  facet normal 0 0 1
    outer loop
      vertex -7.93536 -8.99479 90
      vertex -8.10939 -9.53039 90
      vertex -7.44325 -13.1682 90
    endloop
  endfacet
  facet normal 0 0 1
    outer loop
      vertex -8.10939 -9.53039 90
      vertex -8.44041 -9.986 90
      vertex -7.44325 -13.1682 90
    endloop
  endfacet
  facet normal 0 0 1
    outer loop
      vertex -8.44041 -9.986 90
      vertex -8.89602 -10.317 90
      vertex -7.44325 -13.1682 90
    endloop
  endfacet
  facet normal 0 0 1
    outer loop
      vertex -8.89602 -10.317 90
      vertex -9.43162 -10.491 90
      vertex -7.44325 -13.1682 90
    endloop
  endfacet
  facet normal 0 0 1
    outer loop
      vertex -9.43162 -10.491 90
      vertex -9.99479 -10.491 90
      vertex -7.44325 -13.1682 90
    endloop
  endfacet
  facet normal 0 0 1
    outer loop
      vertex -7.44325 -13.1682 90
      vertex -10.5304 -10.317 90
      vertex -8.93103 -13.6516 90
    endloop
  endfacet
  facet normal 0 0 1
    outer loop
      vertex -9.43162 -6.93536 90
      vertex -8.89602 -7.10939 90
      vertex 19.6718 -3.53812 90
    endloop
  endfacet
  facet normal 0 0 1
    outer loop
      vertex -10.5304 -10.317 90
      vertex -10.986 -9.986 90
      vertex -8.93103 -13.6516 90
    endloop
  endfacet
  facet normal 0 0 1
    outer loop
      vertex -11.317 -9.53039 90
      vertex -14.1682 -6.44325 90
      vertex -10.986 -9.986 90
    endloop
  endfacet
  facet normal 0 0 1
    outer loop
      vertex -8.10939 -7.89602 90
      vertex -7.93536 -8.43162 90
      vertex 19.6718 -3.53812 90
    endloop
  endfacet
  facet normal 0 0 1
    outer loop
      vertex 0 26.1201 90
      vertex 4 21 90
      vertex 21.5226 35 90
    endloop
  endfacet
  facet normal 0 0 1
    outer loop
      vertex 0 26.1201 90
      vertex -14.1682 -6.44325 90
      vertex 4 21 90
    endloop
  endfacet
  facet normal 0 0 1
    outer loop
      vertex 4 4 90
      vertex -14.1682 -6.44325 90
      vertex 19 4 90
    endloop
  endfacet
  facet normal 0 0 1
    outer loop
      vertex 32.4316 35.491 90
      vertex 32.9948 35.491 90
      vertex 34.9832 38.1682 90
    endloop
  endfacet
  facet normal 0 0 1
    outer loop
      vertex 33.4954 38.6516 90
      vertex 31.4404 34.986 90
      vertex 34.9832 38.1682 90
    endloop
  endfacet
  facet normal 0 0 1
    outer loop
      vertex 34.9832 38.1682 90
      vertex 32.9948 35.491 90
      vertex 36.2487 37.2487 90
    endloop
  endfacet
  facet normal 0 0 1
    outer loop
      vertex 32.9948 35.491 90
      vertex 33.5304 35.317 90
      vertex 36.2487 37.2487 90
    endloop
  endfacet
  facet normal 0 0 1
    outer loop
      vertex 36.2487 37.2487 90
      vertex 33.986 34.986 90
      vertex 37.1682 35.9832 90
    endloop
  endfacet
  facet normal 0 0 1
    outer loop
      vertex 31.896 32.1094 90
      vertex 31.4404 32.4404 90
      vertex 19 21 90
    endloop
  endfacet
  facet normal 0 0 1
    outer loop
      vertex 33.986 34.986 90
      vertex 34.317 34.5304 90
      vertex 37.1682 35.9832 90
    endloop
  endfacet
  facet normal 0 0 1
    outer loop
      vertex 34.317 34.5304 90
      vertex 34.491 33.9948 90
      vertex 37.1682 35.9832 90
    endloop
  endfacet
  facet normal 0 0 1
    outer loop
      vertex 37.1682 35.9832 90
      vertex 34.491 33.4316 90
      vertex 37.6516 34.4954 90
    endloop
  endfacet
  facet normal 0 0 1
    outer loop
      vertex 34.491 33.4316 90
      vertex 34.317 32.896 90
      vertex 37.6516 34.4954 90
    endloop
  endfacet
  facet normal 0 0 1
    outer loop
      vertex 34.317 32.896 90
      vertex 33.986 32.4404 90
      vertex 37.6516 34.4954 90
    endloop
  endfacet
  facet normal 0 0 1
    outer loop
      vertex 31.4404 32.4404 90
      vertex 31.1094 32.896 90
      vertex 19 21 90
    endloop
  endfacet
  facet normal 0 0 1
    outer loop
      vertex 34.491 33.9948 90
      vertex 34.491 33.4316 90
      vertex 37.1682 35.9832 90
    endloop
  endfacet
  facet normal 0 0 1
    outer loop
      vertex 4 21 90
      vertex 30.4433 38.1682 90
      vertex 21.5226 35 90
    endloop
  endfacet
  facet normal 0 0 1
    outer loop
      vertex -11.317 -9.53039 90
      vertex -11.491 -8.99479 90
      vertex -14.1682 -6.44325 90
    endloop
  endfacet
  facet normal 0 0 1
    outer loop
      vertex 4 21 90
      vertex 31.4404 34.986 90
      vertex 33.4954 38.6516 90
    endloop
  endfacet
  facet normal 0 0 1
    outer loop
      vertex 31.4404 34.986 90
      vertex 31.896 35.317 90
      vertex 34.9832 38.1682 90
    endloop
  endfacet
  facet normal 0 0 1
    outer loop
      vertex 4 21 90
      vertex 31.1094 34.5304 90
      vertex 31.4404 34.986 90
    endloop
  endfacet
  facet normal 0 0 1
    outer loop
      vertex 4 21 90
      vertex 30.9354 33.9948 90
      vertex 31.1094 34.5304 90
    endloop
  endfacet
  facet normal 0 0 1
    outer loop
      vertex 4 21 90
      vertex 30.9354 33.4316 90
      vertex 30.9354 33.9948 90
    endloop
  endfacet
  facet normal 0 0 1
    outer loop
      vertex 4 21 90
      vertex 31.1094 32.896 90
      vertex 30.9354 33.4316 90
    endloop
  endfacet
  facet normal 0 0 1
    outer loop
      vertex 4 21 90
      vertex 19 21 90
      vertex 31.1094 32.896 90
    endloop
  endfacet
  facet normal 0 0 1
    outer loop
      vertex 33.5304 32.1094 90
      vertex 32.9948 31.9354 90
      vertex 19 21 90
    endloop
  endfacet
  facet normal 0 0 1
    outer loop
      vertex 32.4316 31.9354 90
      vertex 31.896 32.1094 90
      vertex 19 21 90
    endloop
  endfacet
  facet normal 0 0 1
    outer loop
      vertex 32.9948 31.9354 90
      vertex 32.4316 31.9354 90
      vertex 19 21 90
    endloop
  endfacet
  facet normal 0 0 1
    outer loop
      vertex 19 21 90
      vertex 33.986 32.4404 90
      vertex 33.5304 32.1094 90
    endloop
  endfacet
  facet normal 0 0 1
    outer loop
      vertex 19 21 90
      vertex 37.6516 34.4954 90
      vertex 33.986 32.4404 90
    endloop
  endfacet
  facet normal 0 0 1
    outer loop
      vertex 19 21 90
      vertex 37.6516 32.931 90
      vertex 37.6516 34.4954 90
    endloop
  endfacet
  facet normal 0 0 1
    outer loop
      vertex 19 21 90
      vertex 37.1682 31.4433 90
      vertex 37.6516 32.931 90
    endloop
  endfacet
  facet normal 0 0 1
    outer loop
      vertex 31.896 35.317 90
      vertex 32.4316 35.491 90
      vertex 34.9832 38.1682 90
    endloop
  endfacet
  facet normal 0 0 1
    outer loop
      vertex 4 4 90
      vertex 4 21 90
      vertex -14.1682 -6.44325 90
    endloop
  endfacet
  facet normal -0.951057 -0.309017 0
    outer loop
      vertex -14.6516 -9.49538 86
      vertex -14.1682 -10.9832 86
      vertex -14.6516 -9.49538 90
    endloop
  endfacet
  facet normal -0.951057 -0.309017 0
    outer loop
      vertex -14.6516 -9.49538 90
      vertex -14.1682 -10.9832 86
      vertex -14.1682 -10.9832 90
    endloop
  endfacet
  facet normal -0.809017 -0.587785 0
    outer loop
      vertex -14.1682 -10.9832 86
      vertex -13.2487 -12.2487 86
      vertex -14.1682 -10.9832 90
    endloop
  endfacet
  facet normal -0.809017 -0.587785 0
    outer loop
      vertex -14.1682 -10.9832 90
      vertex -13.2487 -12.2487 86
      vertex -13.2487 -12.2487 90
    endloop
  endfacet
  facet normal -0.587785 -0.809017 0
    outer loop
      vertex -13.2487 -12.2487 90
      vertex -13.2487 -12.2487 86
      vertex -11.9832 -13.1682 86
    endloop
  endfacet
  facet normal -0.587785 -0.809017 0
    outer loop
      vertex -11.9832 -13.1682 90
      vertex -13.2487 -12.2487 90
      vertex -11.9832 -13.1682 86
    endloop
  endfacet
  facet normal -0.309017 -0.951057 0
    outer loop
      vertex -11.9832 -13.1682 90
      vertex -11.9832 -13.1682 86
      vertex -10.4954 -13.6516 86
    endloop
  endfacet
  facet normal -0.309017 -0.951057 0
    outer loop
      vertex -10.4954 -13.6516 90
      vertex -11.9832 -13.1682 90
      vertex -10.4954 -13.6516 86
    endloop
  endfacet
  facet normal 7.85046e-17 -1 0
    outer loop
      vertex -10.4954 -13.6516 90
      vertex -10.4954 -13.6516 86
      vertex -8.93103 -13.6516 86
    endloop
  endfacet
  facet normal 7.85046e-17 -1 0
    outer loop
      vertex -8.93103 -13.6516 90
      vertex -10.4954 -13.6516 90
      vertex -8.93103 -13.6516 86
    endloop
  endfacet
  facet normal 0.309017 -0.951057 0
    outer loop
      vertex -8.93103 -13.6516 90
      vertex -8.93103 -13.6516 86
      vertex -7.44325 -13.1682 86
    endloop
  endfacet
  facet normal 0.309017 -0.951057 0
    outer loop
      vertex -7.44325 -13.1682 90
      vertex -8.93103 -13.6516 90
      vertex -7.44325 -13.1682 86
    endloop
  endfacet
  facet normal 0.334676 -0.942333 0
    outer loop
      vertex -7.44325 -13.1682 90
      vertex -7.44325 -13.1682 86
      vertex 19.6718 -3.53812 86
    endloop
  endfacet
  facet normal 0.334676 -0.942333 0
    outer loop
      vertex 19.6718 -3.53812 90
      vertex -7.44325 -13.1682 90
      vertex 19.6718 -3.53812 86
    endloop
  endfacet
  facet normal 0.587785 -0.809017 0
    outer loop
      vertex 19.6718 -3.53812 90
      vertex 19.6718 -3.53812 86
      vertex 24.2279 -0.227922 86
    endloop
  endfacet
  facet normal 0.587785 -0.809017 0
    outer loop
      vertex 24.2279 -0.227922 90
      vertex 19.6718 -3.53812 90
      vertex 24.2279 -0.227922 86
    endloop
  endfacet
  facet normal 0.809017 -0.587785 0
    outer loop
      vertex 24.2279 -0.227922 90
      vertex 24.2279 -0.227922 86
      vertex 27.5381 4.32817 86
    endloop
  endfacet
  facet normal 0.809017 -0.587785 0
    outer loop
      vertex 27.5381 4.32817 90
      vertex 24.2279 -0.227922 90
      vertex 27.5381 4.32817 86
    endloop
  endfacet
  facet normal 0.942333 -0.334676 0
    outer loop
      vertex 27.5381 4.32817 90
      vertex 27.5381 4.32817 86
      vertex 37.1682 31.4433 86
    endloop
  endfacet
  facet normal 0.942333 -0.334676 0
    outer loop
      vertex 37.1682 31.4433 90
      vertex 27.5381 4.32817 90
      vertex 37.1682 31.4433 86
    endloop
  endfacet
  facet normal 0.951057 -0.309017 0
    outer loop
      vertex 37.1682 31.4433 90
      vertex 37.1682 31.4433 86
      vertex 37.6516 32.931 86
    endloop
  endfacet
  facet normal 0.951057 -0.309017 0
    outer loop
      vertex 37.6516 32.931 90
      vertex 37.1682 31.4433 90
      vertex 37.6516 32.931 86
    endloop
  endfacet
  facet normal 1 7.85046e-17 0
    outer loop
      vertex 37.6516 32.931 86
      vertex 37.6516 34.4954 86
      vertex 37.6516 34.4954 90
    endloop
  endfacet
  facet normal 1 7.85046e-17 0
    outer loop
      vertex 37.6516 32.931 90
      vertex 37.6516 32.931 86
      vertex 37.6516 34.4954 90
    endloop
  endfacet
  facet normal 0.951057 0.309017 0
    outer loop
      vertex 37.6516 34.4954 86
      vertex 37.1682 35.9832 86
      vertex 37.1682 35.9832 90
    endloop
  endfacet
  facet normal 0.951057 0.309017 0
    outer loop
      vertex 37.6516 34.4954 90
      vertex 37.6516 34.4954 86
      vertex 37.1682 35.9832 90
    endloop
  endfacet
  facet normal 0.809017 0.587785 0
    outer loop
      vertex 37.1682 35.9832 86
      vertex 36.2487 37.2487 86
      vertex 36.2487 37.2487 90
    endloop
  endfacet
  facet normal 0.809017 0.587785 0
    outer loop
      vertex 37.1682 35.9832 90
      vertex 37.1682 35.9832 86
      vertex 36.2487 37.2487 90
    endloop
  endfacet
  facet normal 0.587785 0.809017 0
    outer loop
      vertex 34.9832 38.1682 86
      vertex 34.9832 38.1682 90
      vertex 36.2487 37.2487 86
    endloop
  endfacet
  facet normal 0.587785 0.809017 0
    outer loop
      vertex 36.2487 37.2487 86
      vertex 34.9832 38.1682 90
      vertex 36.2487 37.2487 90
    endloop
  endfacet
  facet normal 0.309017 0.951057 0
    outer loop
      vertex 33.4954 38.6516 86
      vertex 33.4954 38.6516 90
      vertex 34.9832 38.1682 86
    endloop
  endfacet
  facet normal 0.309017 0.951057 0
    outer loop
      vertex 34.9832 38.1682 86
      vertex 33.4954 38.6516 90
      vertex 34.9832 38.1682 90
    endloop
  endfacet
  facet normal -7.85046e-17 1 0
    outer loop
      vertex 31.931 38.6516 86
      vertex 31.931 38.6516 90
      vertex 33.4954 38.6516 86
    endloop
  endfacet
  facet normal -7.85046e-17 1 0
    outer loop
      vertex 33.4954 38.6516 86
      vertex 31.931 38.6516 90
      vertex 33.4954 38.6516 90
    endloop
  endfacet
  facet normal -0.309017 0.951057 0
    outer loop
      vertex 30.4433 38.1682 86
      vertex 30.4433 38.1682 90
      vertex 31.931 38.6516 86
    endloop
  endfacet
  facet normal -0.309017 0.951057 0
    outer loop
      vertex 31.931 38.6516 86
      vertex 30.4433 38.1682 90
      vertex 31.931 38.6516 90
    endloop
  endfacet
  facet normal -0.334676 0.942333 0
    outer loop
      vertex 21.5226 35 86
      vertex 21.5226 35 90
      vertex 30.4433 38.1682 86
    endloop
  endfacet
  facet normal -0.334676 0.942333 0
    outer loop
      vertex 30.4433 38.1682 86
      vertex 21.5226 35 90
      vertex 30.4433 38.1682 90
    endloop
  endfacet
  facet normal 0 1 0
    outer loop
      vertex 0 35 86
      vertex 0 35 90
      vertex 20 35 86
    endloop
  endfacet
  facet normal 0 1 0
    outer loop
      vertex 20 35 86
      vertex 0 35 90
      vertex 21.5226 35 90
    endloop
  endfacet
  facet normal 0 1 0
    outer loop
      vertex 20 35 86
      vertex 21.5226 35 90
      vertex 21.5226 35 86
    endloop
  endfacet
  facet normal 0 1 0
    outer loop
      vertex 21.5226 35 86
      vertex 24 35 86
      vertex 24 35 38.25
    endloop
  endfacet
  facet normal 0 1 0
    outer loop
      vertex 21.5226 35 86
      vertex 24 35 38.25
      vertex 20 35 86
    endloop
  endfacet
  facet normal 0 1 0
    outer loop
      vertex 20 35 86
      vertex 24 35 38.25
      vertex 20 35 38.25
    endloop
  endfacet
  facet normal 1 0 0
    outer loop
      vertex 24 23.75 13.75
      vertex 24 0 0
      vertex 24 35 0
    endloop
  endfacet
  facet normal 1 0 0
    outer loop
      vertex 24 29.0292 11.5447
      vertex 24 23.75 13.75
      vertex 24 35 0
    endloop
  endfacet
  facet normal 1 0 0
    outer loop
      vertex 24 0 86
      vertex 24 0 0
      vertex 24 23.75 13.75
    endloop
  endfacet
  facet normal 1 0 0
    outer loop
      vertex 24 28.8 39.75
      vertex 24 0 86
      vertex 24 23.75 38.25
    endloop
  endfacet
  facet normal 1 0 0
    outer loop
      vertex 24 35 86
      vertex 24 0 86
      vertex 24 35 38.25
    endloop
  endfacet
  facet normal 1 0 0
    outer loop
      vertex 24 28.8587 39.3792
      vertex 24 28.8 39.75
      vertex 24 23.75 38.25
    endloop
  endfacet
  facet normal 1 0 0
    outer loop
      vertex 24 28.8587 40.1208
      vertex 24 0 86
      vertex 24 28.8 39.75
    endloop
  endfacet
  facet normal 1 0 0
    outer loop
      vertex 24 29.0292 40.4553
      vertex 24 0 86
      vertex 24 28.8587 40.1208
    endloop
  endfacet
  facet normal 1 0 0
    outer loop
      vertex 24 31.1413 39.3792
      vertex 24 30.9708 39.0447
      vertex 24 35 38.25
    endloop
  endfacet
  facet normal 1 0 0
    outer loop
      vertex 24 29.2947 40.7208
      vertex 24 0 86
      vertex 24 29.0292 40.4553
    endloop
  endfacet
  facet normal 1 0 0
    outer loop
      vertex 24 29.6292 40.8913
      vertex 24 0 86
      vertex 24 29.2947 40.7208
    endloop
  endfacet
  facet normal 1 0 0
    outer loop
      vertex 24 30 40.95
      vertex 24 0 86
      vertex 24 29.6292 40.8913
    endloop
  endfacet
  facet normal 1 0 0
    outer loop
      vertex 24 31.1413 40.1208
      vertex 24 31.2 39.75
      vertex 24 35 38.25
    endloop
  endfacet
  facet normal 1 0 0
    outer loop
      vertex 24 30.3708 40.8913
      vertex 24 0 86
      vertex 24 30 40.95
    endloop
  endfacet
  facet normal 1 0 0
    outer loop
      vertex 24 30.7053 40.7208
      vertex 24 0 86
      vertex 24 30.3708 40.8913
    endloop
  endfacet
  facet normal 1 0 0
    outer loop
      vertex 24 35 38.25
      vertex 24 0 86
      vertex 24 30.7053 40.7208
    endloop
  endfacet
  facet normal 1 0 0
    outer loop
      vertex 24 31.2 39.75
      vertex 24 31.1413 39.3792
      vertex 24 35 38.25
    endloop
  endfacet
  facet normal 1 0 0
    outer loop
      vertex 24 31.1413 11.8792
      vertex 24 30.9708 11.5447
      vertex 24 35 0
    endloop
  endfacet
  facet normal 1 0 0
    outer loop
      vertex 24 30 38.55
      vertex 24 29.6292 38.6087
      vertex 24 23.75 38.25
    endloop
  endfacet
  facet normal 1 0 0
    outer loop
      vertex 24 30 13.45
      vertex 24 30.3708 13.3913
      vertex 24 35 13.75
    endloop
  endfacet
  facet normal 1 0 0
    outer loop
      vertex 24 29.2947 38.7792
      vertex 24 29.0292 39.0447
      vertex 24 23.75 38.25
    endloop
  endfacet
  facet normal 1 0 0
    outer loop
      vertex 24 35 38.25
      vertex 24 30.9708 39.0447
      vertex 24 30.7053 38.7792
    endloop
  endfacet
  facet normal 1 0 0
    outer loop
      vertex 24 29.6292 38.6087
      vertex 24 29.2947 38.7792
      vertex 24 23.75 38.25
    endloop
  endfacet
  facet normal 1 0 0
    outer loop
      vertex 24 35 38.25
      vertex 24 30.7053 38.7792
      vertex 24 30.3708 38.6087
    endloop
  endfacet
  facet normal 1 0 0
    outer loop
      vertex 24 35 38.25
      vertex 24 30 38.55
      vertex 24 23.75 38.25
    endloop
  endfacet
  facet normal 1 0 0
    outer loop
      vertex 24 35 38.25
      vertex 24 30.3708 38.6087
      vertex 24 30 38.55
    endloop
  endfacet
  facet normal 1 0 0
    outer loop
      vertex 24 29.0292 39.0447
      vertex 24 28.8587 39.3792
      vertex 24 23.75 38.25
    endloop
  endfacet
  facet normal 1 0 0
    outer loop
      vertex 24 29.2947 11.2792
      vertex 24 29.0292 11.5447
      vertex 24 35 0
    endloop
  endfacet
  facet normal 1 0 0
    outer loop
      vertex 24 23.75 13.75
      vertex 24 23.75 38.25
      vertex 24 0 86
    endloop
  endfacet
  facet normal 1 0 0
    outer loop
      vertex 24 29.6292 11.1087
      vertex 24 29.2947 11.2792
      vertex 24 35 0
    endloop
  endfacet
  facet normal 1 0 0
    outer loop
      vertex 24 30.9708 40.4553
      vertex 24 31.1413 40.1208
      vertex 24 35 38.25
    endloop
  endfacet
  facet normal 1 0 0
    outer loop
      vertex 24 30 11.05
      vertex 24 29.6292 11.1087
      vertex 24 35 0
    endloop
  endfacet
  facet normal 1 0 0
    outer loop
      vertex 24 30.3708 11.1087
      vertex 24 30 11.05
      vertex 24 35 0
    endloop
  endfacet
  facet normal 1 0 0
    outer loop
      vertex 24 31.2 12.25
      vertex 24 31.1413 11.8792
      vertex 24 35 0
    endloop
  endfacet
  facet normal 1 0 0
    outer loop
      vertex 24 30.7053 11.2792
      vertex 24 30.3708 11.1087
      vertex 24 35 0
    endloop
  endfacet
  facet normal 1 0 0
    outer loop
      vertex 24 35 13.75
      vertex 24 30.3708 13.3913
      vertex 24 30.7053 13.2208
    endloop
  endfacet
  facet normal 1 0 0
    outer loop
      vertex 24 35 13.75
      vertex 24 30.7053 13.2208
      vertex 24 30.9708 12.9553
    endloop
  endfacet
  facet normal 1 0 0
    outer loop
      vertex 24 35 13.75
      vertex 24 31.1413 12.6208
      vertex 24 35 0
    endloop
  endfacet
  facet normal 1 0 0
    outer loop
      vertex 24 35 13.75
      vertex 24 30.9708 12.9553
      vertex 24 31.1413 12.6208
    endloop
  endfacet
  facet normal 1 0 0
    outer loop
      vertex 24 31.1413 12.6208
      vertex 24 31.2 12.25
      vertex 24 35 0
    endloop
  endfacet
  facet normal 1 0 0
    outer loop
      vertex 24 30.9708 11.5447
      vertex 24 30.7053 11.2792
      vertex 24 35 0
    endloop
  endfacet
  facet normal 1 0 0
    outer loop
      vertex 24 28.8587 11.8792
      vertex 24 23.75 13.75
      vertex 24 29.0292 11.5447
    endloop
  endfacet
  facet normal 1 0 0
    outer loop
      vertex 24 28.8 12.25
      vertex 24 23.75 13.75
      vertex 24 28.8587 11.8792
    endloop
  endfacet
  facet normal 1 0 0
    outer loop
      vertex 24 30.7053 40.7208
      vertex 24 30.9708 40.4553
      vertex 24 35 38.25
    endloop
  endfacet
  facet normal 1 0 0
    outer loop
      vertex 24 28.8587 12.6208
      vertex 24 23.75 13.75
      vertex 24 28.8 12.25
    endloop
  endfacet
  facet normal 1 0 0
    outer loop
      vertex 24 29.0292 12.9553
      vertex 24 23.75 13.75
      vertex 24 28.8587 12.6208
    endloop
  endfacet
  facet normal 1 0 0
    outer loop
      vertex 24 29.2947 13.2208
      vertex 24 23.75 13.75
      vertex 24 29.0292 12.9553
    endloop
  endfacet
  facet normal 1 0 0
    outer loop
      vertex 24 29.6292 13.3913
      vertex 24 23.75 13.75
      vertex 24 29.2947 13.2208
    endloop
  endfacet
  facet normal 1 0 0
    outer loop
      vertex 24 30 13.45
      vertex 24 23.75 13.75
      vertex 24 29.6292 13.3913
    endloop
  endfacet
  facet normal 1 0 0
    outer loop
      vertex 24 35 13.75
      vertex 24 23.75 13.75
      vertex 24 30 13.45
    endloop
  endfacet
  facet normal 0 -1 0
    outer loop
      vertex 0 0 86
      vertex 0 0 0
      vertex 24 0 0
    endloop
  endfacet
  facet normal 0 -1 0
    outer loop
      vertex 24 0 86
      vertex 0 0 86
      vertex 24 0 0
    endloop
  endfacet
  facet normal -1 0 0
    outer loop
      vertex 0 0 0
      vertex 0 0 86
      vertex 0 23 0
    endloop
  endfacet
  facet normal -1 0 0
    outer loop
      vertex 0 23 0
      vertex 0 0 86
      vertex 0 23 86
    endloop
  endfacet
  facet normal 0 1 0
    outer loop
      vertex 4 23 59
      vertex 0 23 86
      vertex 13 23 59
    endloop
  endfacet
  facet normal 0 1 0
    outer loop
      vertex 20 23 86
      vertex 20 23 35
      vertex 13 23 59
    endloop
  endfacet
  facet normal 0 1 0
    outer loop
      vertex 20 23 86
      vertex 13 23 59
      vertex 0 23 86
    endloop
  endfacet
  facet normal 0 1 0
    outer loop
      vertex 0 23 86
      vertex 4 23 59
      vertex 4 23 0
    endloop
  endfacet
  facet normal 0 1 0
    outer loop
      vertex 0 23 86
      vertex 4 23 0
      vertex 0 23 0
    endloop
  endfacet
  facet normal 0 1 0
    outer loop
      vertex 13 23 59
      vertex 20 23 35
      vertex 13 23 35
    endloop
  endfacet
  facet normal 0 0 -1
    outer loop
      vertex 0 26.1201 86
      vertex 0 35 86
      vertex 20 35 86
    endloop
  endfacet
  facet normal 0 0 -1
    outer loop
      vertex 0 26.1201 86
      vertex 20 35 86
      vertex -1.22792 25.2279 86
    endloop
  endfacet
  facet normal 0 0 -1
    outer loop
      vertex 20 35 86
      vertex 20 23 86
      vertex -1.22792 25.2279 86
    endloop
  endfacet
  facet normal 0 0 -1
    outer loop
      vertex 20 23 86
      vertex 0 23 86
      vertex -1.22792 25.2279 86
    endloop
  endfacet
  facet normal 0 0 -1
    outer loop
      vertex 0 23 86
      vertex -2.8466 23 86
      vertex -1.22792 25.2279 86
    endloop
  endfacet
  facet normal -0.809017 0.587785 0
    outer loop
      vertex -4.53812 20.6718 86
      vertex -4.53812 20.6718 90
      vertex -2.8466 23 86
    endloop
  endfacet
  facet normal -0.809017 0.587785 0
    outer loop
      vertex -2.8466 23 86
      vertex -4.53812 20.6718 90
      vertex -1.22792 25.2279 90
    endloop
  endfacet
  facet normal -0.809017 0.587785 0
    outer loop
      vertex -2.8466 23 86
      vertex -1.22792 25.2279 90
      vertex -1.22792 25.2279 86
    endloop
  endfacet
  facet normal 1 7.85046e-17 0
    outer loop
      vertex -11.491 -8.43162 90
      vertex -11.491 -8.99479 90
      vertex -11.491 -8.99479 86
    endloop
  endfacet
  facet normal 1 7.85046e-17 0
    outer loop
      vertex -11.491 -8.43162 86
      vertex -11.491 -8.43162 90
      vertex -11.491 -8.99479 86
    endloop
  endfacet
  facet normal 0.951057 0.309017 0
    outer loop
      vertex -11.491 -8.99479 90
      vertex -11.317 -9.53039 90
      vertex -11.317 -9.53039 86
    endloop
  endfacet
  facet normal 0.951057 0.309017 0
    outer loop
      vertex -11.491 -8.99479 86
      vertex -11.491 -8.99479 90
      vertex -11.317 -9.53039 86
    endloop
  endfacet
  facet normal 0.951057 -0.309017 0
    outer loop
      vertex -11.317 -7.89602 86
      vertex -11.317 -7.89602 90
      vertex -11.491 -8.43162 90
    endloop
  endfacet
  facet normal 0.951057 -0.309017 0
    outer loop
      vertex -11.491 -8.43162 86
      vertex -11.317 -7.89602 86
      vertex -11.491 -8.43162 90
    endloop
  endfacet
  facet normal 0.809017 -0.587786 0
    outer loop
      vertex -10.986 -7.44041 86
      vertex -10.986 -7.44041 90
      vertex -11.317 -7.89602 90
    endloop
  endfacet
  facet normal 0.809017 -0.587786 0
    outer loop
      vertex -11.317 -7.89602 86
      vertex -10.986 -7.44041 86
      vertex -11.317 -7.89602 90
    endloop
  endfacet
  facet normal 0.587786 -0.809017 0
    outer loop
      vertex -10.5304 -7.10939 86
      vertex -10.5304 -7.10939 90
      vertex -10.986 -7.44041 90
    endloop
  endfacet
  facet normal 0.587786 -0.809017 0
    outer loop
      vertex -10.986 -7.44041 86
      vertex -10.5304 -7.10939 86
      vertex -10.986 -7.44041 90
    endloop
  endfacet
  facet normal 0.309017 -0.951057 0
    outer loop
      vertex -9.99479 -6.93536 86
      vertex -9.99479 -6.93536 90
      vertex -10.5304 -7.10939 90
    endloop
  endfacet
  facet normal 0.309017 -0.951057 0
    outer loop
      vertex -10.5304 -7.10939 86
      vertex -9.99479 -6.93536 86
      vertex -10.5304 -7.10939 90
    endloop
  endfacet
  facet normal 7.85046e-17 -1 0
    outer loop
      vertex -9.43162 -6.93536 86
      vertex -9.43162 -6.93536 90
      vertex -9.99479 -6.93536 90
    endloop
  endfacet
  facet normal 7.85046e-17 -1 0
    outer loop
      vertex -9.99479 -6.93536 86
      vertex -9.43162 -6.93536 86
      vertex -9.99479 -6.93536 90
    endloop
  endfacet
  facet normal -0.309017 -0.951057 0
    outer loop
      vertex -8.89602 -7.10939 86
      vertex -8.89602 -7.10939 90
      vertex -9.43162 -6.93536 90
    endloop
  endfacet
  facet normal -0.309017 -0.951057 0
    outer loop
      vertex -9.43162 -6.93536 86
      vertex -8.89602 -7.10939 86
      vertex -9.43162 -6.93536 90
    endloop
  endfacet
  facet normal -0.587786 -0.809017 0
    outer loop
      vertex -8.44041 -7.44041 86
      vertex -8.44041 -7.44041 90
      vertex -8.89602 -7.10939 90
    endloop
  endfacet
  facet normal -0.587786 -0.809017 0
    outer loop
      vertex -8.89602 -7.10939 86
      vertex -8.44041 -7.44041 86
      vertex -8.89602 -7.10939 90
    endloop
  endfacet
  facet normal -0.809017 -0.587786 0
    outer loop
      vertex -8.10939 -7.89602 90
      vertex -8.44041 -7.44041 90
      vertex -8.10939 -7.89602 86
    endloop
  endfacet
  facet normal -0.809017 -0.587786 0
    outer loop
      vertex -8.10939 -7.89602 86
      vertex -8.44041 -7.44041 90
      vertex -8.44041 -7.44041 86
    endloop
  endfacet
  facet normal -0.951057 -0.309017 0
    outer loop
      vertex -7.93536 -8.43162 90
      vertex -8.10939 -7.89602 90
      vertex -7.93536 -8.43162 86
    endloop
  endfacet
  facet normal -0.951057 -0.309017 0
    outer loop
      vertex -7.93536 -8.43162 86
      vertex -8.10939 -7.89602 90
      vertex -8.10939 -7.89602 86
    endloop
  endfacet
  facet normal -1 -7.85046e-17 0
    outer loop
      vertex -7.93536 -8.99479 90
      vertex -7.93536 -8.43162 90
      vertex -7.93536 -8.99479 86
    endloop
  endfacet
  facet normal -1 -7.85046e-17 0
    outer loop
      vertex -7.93536 -8.99479 86
      vertex -7.93536 -8.43162 90
      vertex -7.93536 -8.43162 86
    endloop
  endfacet
  facet normal -0.951057 0.309017 0
    outer loop
      vertex -7.93536 -8.99479 90
      vertex -7.93536 -8.99479 86
      vertex -8.10939 -9.53039 90
    endloop
  endfacet
  facet normal -0.951057 0.309017 0
    outer loop
      vertex -8.10939 -9.53039 90
      vertex -7.93536 -8.99479 86
      vertex -8.10939 -9.53039 86
    endloop
  endfacet
  facet normal -0.809017 0.587786 0
    outer loop
      vertex -8.10939 -9.53039 90
      vertex -8.10939 -9.53039 86
      vertex -8.44041 -9.986 90
    endloop
  endfacet
  facet normal -0.809017 0.587786 0
    outer loop
      vertex -8.44041 -9.986 90
      vertex -8.10939 -9.53039 86
      vertex -8.44041 -9.986 86
    endloop
  endfacet
  facet normal -0.587786 0.809017 0
    outer loop
      vertex -8.44041 -9.986 90
      vertex -8.44041 -9.986 86
      vertex -8.89602 -10.317 90
    endloop
  endfacet
  facet normal -0.587786 0.809017 0
    outer loop
      vertex -8.89602 -10.317 90
      vertex -8.44041 -9.986 86
      vertex -8.89602 -10.317 86
    endloop
  endfacet
  facet normal -0.309017 0.951057 0
    outer loop
      vertex -8.89602 -10.317 90
      vertex -8.89602 -10.317 86
      vertex -9.43162 -10.491 90
    endloop
  endfacet
  facet normal -0.309017 0.951057 0
    outer loop
      vertex -9.43162 -10.491 90
      vertex -8.89602 -10.317 86
      vertex -9.43162 -10.491 86
    endloop
  endfacet
  facet normal -7.85046e-17 1 0
    outer loop
      vertex -9.43162 -10.491 90
      vertex -9.43162 -10.491 86
      vertex -9.99479 -10.491 90
    endloop
  endfacet
  facet normal -7.85046e-17 1 0
    outer loop
      vertex -9.99479 -10.491 90
      vertex -9.43162 -10.491 86
      vertex -9.99479 -10.491 86
    endloop
  endfacet
  facet normal 0.309017 0.951057 0
    outer loop
      vertex -9.99479 -10.491 90
      vertex -9.99479 -10.491 86
      vertex -10.5304 -10.317 90
    endloop
  endfacet
  facet normal 0.309017 0.951057 0
    outer loop
      vertex -10.5304 -10.317 90
      vertex -9.99479 -10.491 86
      vertex -10.5304 -10.317 86
    endloop
  endfacet
  facet normal 0.587786 0.809017 0
    outer loop
      vertex -10.5304 -10.317 90
      vertex -10.5304 -10.317 86
      vertex -10.986 -9.986 90
    endloop
  endfacet
  facet normal 0.587786 0.809017 0
    outer loop
      vertex -10.986 -9.986 90
      vertex -10.5304 -10.317 86
      vertex -10.986 -9.986 86
    endloop
  endfacet
  facet normal 0.809017 0.587786 0
    outer loop
      vertex -11.317 -9.53039 90
      vertex -10.986 -9.986 90
      vertex -10.986 -9.986 86
    endloop
  endfacet
  facet normal 0.809017 0.587786 0
    outer loop
      vertex -11.317 -9.53039 86
      vertex -11.317 -9.53039 90
      vertex -10.986 -9.986 86
    endloop
  endfacet
  facet normal 1 7.85046e-17 0
    outer loop
      vertex 30.9354 33.9948 90
      vertex 30.9354 33.4316 90
      vertex 30.9354 33.4316 86
    endloop
  endfacet
  facet normal 1 7.85046e-17 0
    outer loop
      vertex 30.9354 33.9948 86
      vertex 30.9354 33.9948 90
      vertex 30.9354 33.4316 86
    endloop
  endfacet
  facet normal 0.951057 0.309017 0
    outer loop
      vertex 30.9354 33.4316 90
      vertex 31.1094 32.896 90
      vertex 31.1094 32.896 86
    endloop
  endfacet
  facet normal 0.951057 0.309017 0
    outer loop
      vertex 30.9354 33.4316 86
      vertex 30.9354 33.4316 90
      vertex 31.1094 32.896 86
    endloop
  endfacet
  facet normal 0.951057 -0.309017 0
    outer loop
      vertex 31.1094 34.5304 86
      vertex 31.1094 34.5304 90
      vertex 30.9354 33.9948 90
    endloop
  endfacet
  facet normal 0.951057 -0.309017 0
    outer loop
      vertex 30.9354 33.9948 86
      vertex 31.1094 34.5304 86
      vertex 30.9354 33.9948 90
    endloop
  endfacet
  facet normal 0.809017 -0.587786 0
    outer loop
      vertex 31.4404 34.986 86
      vertex 31.4404 34.986 90
      vertex 31.1094 34.5304 90
    endloop
  endfacet
  facet normal 0.809017 -0.587786 0
    outer loop
      vertex 31.1094 34.5304 86
      vertex 31.4404 34.986 86
      vertex 31.1094 34.5304 90
    endloop
  endfacet
  facet normal 0.587786 -0.809017 0
    outer loop
      vertex 31.896 35.317 86
      vertex 31.896 35.317 90
      vertex 31.4404 34.986 90
    endloop
  endfacet
  facet normal 0.587786 -0.809017 0
    outer loop
      vertex 31.4404 34.986 86
      vertex 31.896 35.317 86
      vertex 31.4404 34.986 90
    endloop
  endfacet
  facet normal 0.309017 -0.951057 0
    outer loop
      vertex 32.4316 35.491 86
      vertex 32.4316 35.491 90
      vertex 31.896 35.317 90
    endloop
  endfacet
  facet normal 0.309017 -0.951057 0
    outer loop
      vertex 31.896 35.317 86
      vertex 32.4316 35.491 86
      vertex 31.896 35.317 90
    endloop
  endfacet
  facet normal 7.85046e-17 -1 0
    outer loop
      vertex 32.9948 35.491 86
      vertex 32.9948 35.491 90
      vertex 32.4316 35.491 90
    endloop
  endfacet
  facet normal 7.85046e-17 -1 0
    outer loop
      vertex 32.4316 35.491 86
      vertex 32.9948 35.491 86
      vertex 32.4316 35.491 90
    endloop
  endfacet
  facet normal -0.309017 -0.951057 0
    outer loop
      vertex 33.5304 35.317 86
      vertex 33.5304 35.317 90
      vertex 32.9948 35.491 90
    endloop
  endfacet
  facet normal -0.309017 -0.951057 0
    outer loop
      vertex 32.9948 35.491 86
      vertex 33.5304 35.317 86
      vertex 32.9948 35.491 90
    endloop
  endfacet
  facet normal -0.587786 -0.809017 0
    outer loop
      vertex 33.986 34.986 86
      vertex 33.986 34.986 90
      vertex 33.5304 35.317 90
    endloop
  endfacet
  facet normal -0.587786 -0.809017 0
    outer loop
      vertex 33.5304 35.317 86
      vertex 33.986 34.986 86
      vertex 33.5304 35.317 90
    endloop
  endfacet
  facet normal -0.809017 -0.587786 0
    outer loop
      vertex 34.317 34.5304 90
      vertex 33.986 34.986 90
      vertex 34.317 34.5304 86
    endloop
  endfacet
  facet normal -0.809017 -0.587786 0
    outer loop
      vertex 34.317 34.5304 86
      vertex 33.986 34.986 90
      vertex 33.986 34.986 86
    endloop
  endfacet
  facet normal -0.951057 -0.309017 0
    outer loop
      vertex 34.491 33.9948 90
      vertex 34.317 34.5304 90
      vertex 34.491 33.9948 86
    endloop
  endfacet
  facet normal -0.951057 -0.309017 0
    outer loop
      vertex 34.491 33.9948 86
      vertex 34.317 34.5304 90
      vertex 34.317 34.5304 86
    endloop
  endfacet
  facet normal -1 -7.85046e-17 0
    outer loop
      vertex 34.491 33.4316 90
      vertex 34.491 33.9948 90
      vertex 34.491 33.4316 86
    endloop
  endfacet
  facet normal -1 -7.85046e-17 0
    outer loop
      vertex 34.491 33.4316 86
      vertex 34.491 33.9948 90
      vertex 34.491 33.9948 86
    endloop
  endfacet
  facet normal -0.951057 0.309017 0
    outer loop
      vertex 34.491 33.4316 90
      vertex 34.491 33.4316 86
      vertex 34.317 32.896 90
    endloop
  endfacet
  facet normal -0.951057 0.309017 0
    outer loop
      vertex 34.317 32.896 90
      vertex 34.491 33.4316 86
      vertex 34.317 32.896 86
    endloop
  endfacet
  facet normal -0.809017 0.587786 0
    outer loop
      vertex 34.317 32.896 90
      vertex 34.317 32.896 86
      vertex 33.986 32.4404 90
    endloop
  endfacet
  facet normal -0.809017 0.587786 0
    outer loop
      vertex 33.986 32.4404 90
      vertex 34.317 32.896 86
      vertex 33.986 32.4404 86
    endloop
  endfacet
  facet normal -0.587786 0.809017 0
    outer loop
      vertex 33.986 32.4404 90
      vertex 33.986 32.4404 86
      vertex 33.5304 32.1094 90
    endloop
  endfacet
  facet normal -0.587786 0.809017 0
    outer loop
      vertex 33.5304 32.1094 90
      vertex 33.986 32.4404 86
      vertex 33.5304 32.1094 86
    endloop
  endfacet
  facet normal -0.309017 0.951057 0
    outer loop
      vertex 33.5304 32.1094 90
      vertex 33.5304 32.1094 86
      vertex 32.9948 31.9354 90
    endloop
  endfacet
  facet normal -0.309017 0.951057 0
    outer loop
      vertex 32.9948 31.9354 90
      vertex 33.5304 32.1094 86
      vertex 32.9948 31.9354 86
    endloop
  endfacet
  facet normal -7.85046e-17 1 0
    outer loop
      vertex 32.9948 31.9354 90
      vertex 32.9948 31.9354 86
      vertex 32.4316 31.9354 90
    endloop
  endfacet
  facet normal -7.85046e-17 1 0
    outer loop
      vertex 32.4316 31.9354 90
      vertex 32.9948 31.9354 86
      vertex 32.4316 31.9354 86
    endloop
  endfacet
  facet normal 0.309017 0.951057 0
    outer loop
      vertex 32.4316 31.9354 90
      vertex 32.4316 31.9354 86
      vertex 31.896 32.1094 90
    endloop
  endfacet
  facet normal 0.309017 0.951057 0
    outer loop
      vertex 31.896 32.1094 90
      vertex 32.4316 31.9354 86
      vertex 31.896 32.1094 86
    endloop
  endfacet
  facet normal 0.587786 0.809017 0
    outer loop
      vertex 31.896 32.1094 90
      vertex 31.896 32.1094 86
      vertex 31.4404 32.4404 90
    endloop
  endfacet
  facet normal 0.587786 0.809017 0
    outer loop
      vertex 31.4404 32.4404 90
      vertex 31.896 32.1094 86
      vertex 31.4404 32.4404 86
    endloop
  endfacet
  facet normal 0.809017 0.587786 0
    outer loop
      vertex 31.1094 32.896 90
      vertex 31.4404 32.4404 90
      vertex 31.4404 32.4404 86
    endloop
  endfacet
  facet normal 0.809017 0.587786 0
    outer loop
      vertex 31.1094 32.896 86
      vertex 31.1094 32.896 90
      vertex 31.4404 32.4404 86
    endloop
  endfacet
  facet normal -0.587785 0.809017 0
    outer loop
      vertex -1.22792 25.2279 86
      vertex -1.22792 25.2279 90
      vertex 0 26.1201 86
    endloop
  endfacet
  facet normal -0.587785 0.809017 0
    outer loop
      vertex 0 26.1201 86
      vertex -1.22792 25.2279 90
      vertex 0 26.1201 90
    endloop
  endfacet
  facet normal -1 0 0
    outer loop
      vertex 0 26.1201 86
      vertex 0 26.1201 90
      vertex 0 35 86
    endloop
  endfacet
  facet normal -1 0 0
    outer loop
      vertex 0 35 86
      vertex 0 26.1201 90
      vertex 0 35 90
    endloop
  endfacet
  facet normal 1 0 0
    outer loop
      vertex 4 23 0
      vertex 4 23 59
      vertex 4 21 59
    endloop
  endfacet
  facet normal 1 0 0
    outer loop
      vertex 4 4 90
      vertex 4 23 0
      vertex 4 21 59
    endloop
  endfacet
  facet normal 1 0 0
    outer loop
      vertex 4 21 90
      vertex 4 4 90
      vertex 4 21 59
    endloop
  endfacet
  facet normal 1 0 0
    outer loop
      vertex 4 4 90
      vertex 4 4 0
      vertex 4 23 0
    endloop
  endfacet
  facet normal 0 1 0
    outer loop
      vertex 19 4 90
      vertex 19 4 42
      vertex 4 4 90
    endloop
  endfacet
  facet normal 0 1 0
    outer loop
      vertex 4 4 90
      vertex 19 4 42
      vertex 18.6421 4 42
    endloop
  endfacet
  facet normal 0 1 0
    outer loop
      vertex 18.6421 4 42
      vertex 13 4 36.3579
      vertex 4 4 90
    endloop
  endfacet
  facet normal 0 1 0
    outer loop
      vertex 13 4 36.3579
      vertex 13 4 0
      vertex 4 4 90
    endloop
  endfacet
  facet normal 0 1 0
    outer loop
      vertex 4 4 90
      vertex 13 4 0
      vertex 4 4 0
    endloop
  endfacet
  facet normal -1 0 0
    outer loop
      vertex 19 21 90
      vertex 19 21 42
      vertex 19 4 90
    endloop
  endfacet
  facet normal -1 0 0
    outer loop
      vertex 19 4 90
      vertex 19 21 42
      vertex 19 4 42
    endloop
  endfacet
  facet normal 0 -1 0
    outer loop
      vertex 13 21 59
      vertex 13 21 36.3579
      vertex 18.6421 21 42
    endloop
  endfacet
  facet normal 0 -1 0
    outer loop
      vertex 19 21 42
      vertex 19 21 90
      vertex 13 21 59
    endloop
  endfacet
  facet normal 0 -1 0
    outer loop
      vertex 19 21 90
      vertex 4 21 90
      vertex 13 21 59
    endloop
  endfacet
  facet normal 0 -1 0
    outer loop
      vertex 18.6421 21 42
      vertex 19 21 42
      vertex 13 21 59
    endloop
  endfacet
  facet normal 0 -1 0
    outer loop
      vertex 4 21 59
      vertex 13 21 59
      vertex 4 21 90
    endloop
  endfacet
  facet normal -1 0 0
    outer loop
      vertex 20 23.75 38.25
      vertex 20 23 86
      vertex 20 35 86
    endloop
  endfacet
  facet normal -1 0 0
    outer loop
      vertex 20 31.2 39.75
      vertex 20 35 86
      vertex 20 35 38.25
    endloop
  endfacet
  facet normal -1 0 0
    outer loop
      vertex 20 23 35
      vertex 20 23 86
      vertex 20 23.75 38.25
    endloop
  endfacet
  facet normal -1 0 0
    outer loop
      vertex 20 23.75 13.75
      vertex 20 23 35
      vertex 20 23.75 38.25
    endloop
  endfacet
  facet normal -1 0 0
    outer loop
      vertex 20 30.3708 38.6087
      vertex 20 35 38.25
      vertex 20 30 38.55
    endloop
  endfacet
  facet normal -1 0 0
    outer loop
      vertex 20 23 35
      vertex 20 23.75 13.75
      vertex 20 16 35
    endloop
  endfacet
  facet normal -1 0 0
    outer loop
      vertex 20 30.7053 11.2792
      vertex 20 35 13.75
      vertex 20 35 0
    endloop
  endfacet
  facet normal -1 0 0
    outer loop
      vertex 20 23.75 13.75
      vertex 20 35 0
      vertex 20 16 0
    endloop
  endfacet
  facet normal -1 0 0
    outer loop
      vertex 20 23.75 13.75
      vertex 20 16 0
      vertex 20 16 35
    endloop
  endfacet
  facet normal -1 0 0
    outer loop
      vertex 20 30.7053 38.7792
      vertex 20 35 38.25
      vertex 20 30.3708 38.6087
    endloop
  endfacet
  facet normal -1 0 0
    outer loop
      vertex 20 30.9708 39.0447
      vertex 20 35 38.25
      vertex 20 30.7053 38.7792
    endloop
  endfacet
  facet normal -1 0 0
    outer loop
      vertex 20 31.1413 39.3792
      vertex 20 35 38.25
      vertex 20 30.9708 39.0447
    endloop
  endfacet
  facet normal -1 0 0
    outer loop
      vertex 20 29.2947 11.2792
      vertex 20 35 0
      vertex 20 29.0292 11.5447
    endloop
  endfacet
  facet normal -1 0 0
    outer loop
      vertex 20 31.1413 40.1208
      vertex 20 35 86
      vertex 20 31.2 39.75
    endloop
  endfacet
  facet normal -1 0 0
    outer loop
      vertex 20 31.1413 39.3792
      vertex 20 31.2 39.75
      vertex 20 35 38.25
    endloop
  endfacet
  facet normal -1 0 0
    outer loop
      vertex 20 30.9708 40.4553
      vertex 20 35 86
      vertex 20 31.1413 40.1208
    endloop
  endfacet
  facet normal -1 0 0
    outer loop
      vertex 20 30.7053 40.7208
      vertex 20 35 86
      vertex 20 30.9708 40.4553
    endloop
  endfacet
  facet normal -1 0 0
    outer loop
      vertex 20 30.3708 40.8913
      vertex 20 35 86
      vertex 20 30.7053 40.7208
    endloop
  endfacet
  facet normal -1 0 0
    outer loop
      vertex 20 30 40.95
      vertex 20 35 86
      vertex 20 30.3708 40.8913
    endloop
  endfacet
  facet normal -1 0 0
    outer loop
      vertex 20 29.6292 40.8913
      vertex 20 35 86
      vertex 20 30 40.95
    endloop
  endfacet
  facet normal -1 0 0
    outer loop
      vertex 20 29.2947 40.7208
      vertex 20 35 86
      vertex 20 29.6292 40.8913
    endloop
  endfacet
  facet normal -1 0 0
    outer loop
      vertex 20 29.0292 40.4553
      vertex 20 35 86
      vertex 20 29.2947 40.7208
    endloop
  endfacet
  facet normal -1 0 0
    outer loop
      vertex 20 28.8587 40.1208
      vertex 20 35 86
      vertex 20 29.0292 40.4553
    endloop
  endfacet
  facet normal -1 0 0
    outer loop
      vertex 20 28.8 39.75
      vertex 20 35 86
      vertex 20 28.8587 40.1208
    endloop
  endfacet
  facet normal -1 0 0
    outer loop
      vertex 20 29.6292 13.3913
      vertex 20 23.75 13.75
      vertex 20 30 13.45
    endloop
  endfacet
  facet normal -1 0 0
    outer loop
      vertex 20 23.75 13.75
      vertex 20 28.8 12.25
      vertex 20 28.8587 11.8792
    endloop
  endfacet
  facet normal -1 0 0
    outer loop
      vertex 20 23.75 13.75
      vertex 20 28.8587 11.8792
      vertex 20 29.0292 11.5447
    endloop
  endfacet
  facet normal -1 0 0
    outer loop
      vertex 20 23.75 13.75
      vertex 20 29.0292 11.5447
      vertex 20 35 0
    endloop
  endfacet
  facet normal -1 0 0
    outer loop
      vertex 20 30.9708 12.9553
      vertex 20 35 13.75
      vertex 20 31.1413 12.6208
    endloop
  endfacet
  facet normal -1 0 0
    outer loop
      vertex 20 30.9708 11.5447
      vertex 20 35 13.75
      vertex 20 30.7053 11.2792
    endloop
  endfacet
  facet normal -1 0 0
    outer loop
      vertex 20 31.2 12.25
      vertex 20 35 13.75
      vertex 20 31.1413 11.8792
    endloop
  endfacet
  facet normal -1 0 0
    outer loop
      vertex 20 29.2947 11.2792
      vertex 20 29.6292 11.1087
      vertex 20 35 0
    endloop
  endfacet
  facet normal -1 0 0
    outer loop
      vertex 20 29.6292 11.1087
      vertex 20 30 11.05
      vertex 20 35 0
    endloop
  endfacet
  facet normal -1 0 0
    outer loop
      vertex 20 31.1413 11.8792
      vertex 20 35 13.75
      vertex 20 30.9708 11.5447
    endloop
  endfacet
  facet normal -1 0 0
    outer loop
      vertex 20 30 11.05
      vertex 20 30.3708 11.1087
      vertex 20 35 0
    endloop
  endfacet
  facet normal -1 0 0
    outer loop
      vertex 20 30.3708 11.1087
      vertex 20 30.7053 11.2792
      vertex 20 35 0
    endloop
  endfacet
  facet normal -1 0 0
    outer loop
      vertex 20 31.1413 12.6208
      vertex 20 35 13.75
      vertex 20 31.2 12.25
    endloop
  endfacet
  facet normal -1 0 0
    outer loop
      vertex 20 30.7053 13.2208
      vertex 20 35 13.75
      vertex 20 30.9708 12.9553
    endloop
  endfacet
  facet normal -1 0 0
    outer loop
      vertex 20 30.3708 13.3913
      vertex 20 35 13.75
      vertex 20 30.7053 13.2208
    endloop
  endfacet
  facet normal -1 0 0
    outer loop
      vertex 20 30 13.45
      vertex 20 35 13.75
      vertex 20 30.3708 13.3913
    endloop
  endfacet
  facet normal -1 0 0
    outer loop
      vertex 20 23.75 13.75
      vertex 20 35 13.75
      vertex 20 30 13.45
    endloop
  endfacet
  facet normal -1 0 0
    outer loop
      vertex 20 29.2947 13.2208
      vertex 20 23.75 13.75
      vertex 20 29.6292 13.3913
    endloop
  endfacet
  facet normal -1 0 0
    outer loop
      vertex 20 29.0292 12.9553
      vertex 20 23.75 13.75
      vertex 20 29.2947 13.2208
    endloop
  endfacet
  facet normal -1 0 0
    outer loop
      vertex 20 23.75 13.75
      vertex 20 29.0292 12.9553
      vertex 20 28.8587 12.6208
    endloop
  endfacet
  facet normal -1 0 0
    outer loop
      vertex 20 23.75 13.75
      vertex 20 28.8587 12.6208
      vertex 20 28.8 12.25
    endloop
  endfacet
  facet normal -1 0 0
    outer loop
      vertex 20 23.75 38.25
      vertex 20 35 86
      vertex 20 28.8 39.75
    endloop
  endfacet
  facet normal -1 0 0
    outer loop
      vertex 20 23.75 38.25
      vertex 20 28.8 39.75
      vertex 20 28.8587 39.3792
    endloop
  endfacet
  facet normal -1 0 0
    outer loop
      vertex 20 23.75 38.25
      vertex 20 28.8587 39.3792
      vertex 20 29.0292 39.0447
    endloop
  endfacet
  facet normal -1 0 0
    outer loop
      vertex 20 23.75 38.25
      vertex 20 29.0292 39.0447
      vertex 20 29.2947 38.7792
    endloop
  endfacet
  facet normal -1 0 0
    outer loop
      vertex 20 23.75 38.25
      vertex 20 29.2947 38.7792
      vertex 20 29.6292 38.6087
    endloop
  endfacet
  facet normal -1 0 0
    outer loop
      vertex 20 23.75 38.25
      vertex 20 29.6292 38.6087
      vertex 20 30 38.55
    endloop
  endfacet
  facet normal -1 0 0
    outer loop
      vertex 20 23.75 38.25
      vertex 20 30 38.55
      vertex 20 35 38.25
    endloop
  endfacet
  facet normal 2.22045e-16 -4.93038e-32 -1
    outer loop
      vertex 24 35 38.25
      vertex 24 23.75 38.25
      vertex 20 35 38.25
    endloop
  endfacet
  facet normal 2.22045e-16 -4.93038e-32 -1
    outer loop
      vertex 20 35 38.25
      vertex 24 23.75 38.25
      vertex 20 23.75 38.25
    endloop
  endfacet
  facet normal 2.22045e-16 1 4.93038e-32
    outer loop
      vertex 24 23.75 13.75
      vertex 20 23.75 13.75
      vertex 24 23.75 38.25
    endloop
  endfacet
  facet normal 2.22045e-16 1 4.93038e-32
    outer loop
      vertex 24 23.75 38.25
      vertex 20 23.75 13.75
      vertex 20 23.75 38.25
    endloop
  endfacet
  facet normal -2.22045e-16 4.93038e-32 1
    outer loop
      vertex 24 23.75 13.75
      vertex 24 35 13.75
      vertex 20 35 13.75
    endloop
  endfacet
  facet normal -2.22045e-16 4.93038e-32 1
    outer loop
      vertex 20 23.75 13.75
      vertex 24 23.75 13.75
      vertex 20 35 13.75
    endloop
  endfacet
  facet normal 0 1 0
    outer loop
      vertex 20 35 0
      vertex 20 35 13.75
      vertex 24 35 0
    endloop
  endfacet
  facet normal 0 1 0
    outer loop
      vertex 24 35 0
      vertex 20 35 13.75
      vertex 24 35 13.75
    endloop
  endfacet
  facet normal 0 0 -1
    outer loop
      vertex 0 0 0
      vertex 0 23 0
      vertex 4 4 0
    endloop
  endfacet
  facet normal 0 0 -1
    outer loop
      vertex 0 0 0
      vertex 4 4 0
      vertex 24 0 0
    endloop
  endfacet
  facet normal 0 0 -1
    outer loop
      vertex 13 16 0
      vertex 24 0 0
      vertex 13 4 0
    endloop
  endfacet
  facet normal 0 0 -1
    outer loop
      vertex 4 4 0
      vertex 13 4 0
      vertex 24 0 0
    endloop
  endfacet
  facet normal 0 0 -1
    outer loop
      vertex 24 0 0
      vertex 13 16 0
      vertex 20 16 0
    endloop
  endfacet
  facet normal 0 0 -1
    outer loop
      vertex 20 16 0
      vertex 20 35 0
      vertex 24 0 0
    endloop
  endfacet
  facet normal 0 0 -1
    outer loop
      vertex 24 0 0
      vertex 20 35 0
      vertex 24 35 0
    endloop
  endfacet
  facet normal 0 0 -1
    outer loop
      vertex 4 4 0
      vertex 0 23 0
      vertex 4 23 0
    endloop
  endfacet
  facet normal 2.54046e-16 0.987688 -0.156434
    outer loop
      vertex 24 28.8587 40.1208
      vertex 24 28.8 39.75
      vertex 20 28.8587 40.1208
    endloop
  endfacet
  facet normal 2.54046e-16 0.987688 -0.156434
    outer loop
      vertex 20 28.8587 40.1208
      vertex 24 28.8 39.75
      vertex 20 28.8 39.75
    endloop
  endfacet
  facet normal 1.84576e-16 0.987688 0.156434
    outer loop
      vertex 24 28.8587 39.3792
      vertex 20 28.8587 39.3792
      vertex 24 28.8 39.75
    endloop
  endfacet
  facet normal 1.84576e-16 0.987688 0.156434
    outer loop
      vertex 24 28.8 39.75
      vertex 20 28.8587 39.3792
      vertex 20 28.8 39.75
    endloop
  endfacet
  facet normal 9.70367e-17 0.891006 0.453992
    outer loop
      vertex 24 29.0292 39.0447
      vertex 20 29.0292 39.0447
      vertex 24 28.8587 39.3792
    endloop
  endfacet
  facet normal 9.70367e-17 0.891006 0.453992
    outer loop
      vertex 24 28.8587 39.3792
      vertex 20 29.0292 39.0447
      vertex 20 28.8587 39.3792
    endloop
  endfacet
  facet normal 0 0.707107 0.707107
    outer loop
      vertex 24 29.2947 38.7792
      vertex 20 29.2947 38.7792
      vertex 24 29.0292 39.0447
    endloop
  endfacet
  facet normal 0 0.707107 0.707107
    outer loop
      vertex 24 29.0292 39.0447
      vertex 20 29.2947 38.7792
      vertex 20 29.0292 39.0447
    endloop
  endfacet
  facet normal -9.70367e-17 0.453992 0.891006
    outer loop
      vertex 24 29.2947 38.7792
      vertex 24 29.6292 38.6087
      vertex 20 29.6292 38.6087
    endloop
  endfacet
  facet normal -9.70367e-17 0.453992 0.891006
    outer loop
      vertex 20 29.2947 38.7792
      vertex 24 29.2947 38.7792
      vertex 20 29.6292 38.6087
    endloop
  endfacet
  facet normal -1.84576e-16 0.156434 0.987688
    outer loop
      vertex 24 29.6292 38.6087
      vertex 24 30 38.55
      vertex 20 30 38.55
    endloop
  endfacet
  facet normal -1.84576e-16 0.156434 0.987688
    outer loop
      vertex 20 29.6292 38.6087
      vertex 24 29.6292 38.6087
      vertex 20 30 38.55
    endloop
  endfacet
  facet normal -2.54046e-16 -0.156434 0.987688
    outer loop
      vertex 24 30 38.55
      vertex 24 30.3708 38.6087
      vertex 20 30.3708 38.6087
    endloop
  endfacet
  facet normal -2.54046e-16 -0.156434 0.987688
    outer loop
      vertex 20 30 38.55
      vertex 24 30 38.55
      vertex 20 30.3708 38.6087
    endloop
  endfacet
  facet normal -2.98649e-16 -0.453992 0.891006
    outer loop
      vertex 24 30.3708 38.6087
      vertex 24 30.7053 38.7792
      vertex 20 30.7053 38.7792
    endloop
  endfacet
  facet normal -2.98649e-16 -0.453992 0.891006
    outer loop
      vertex 20 30.3708 38.6087
      vertex 24 30.3708 38.6087
      vertex 20 30.7053 38.7792
    endloop
  endfacet
  facet normal -3.14018e-16 -0.707107 0.707107
    outer loop
      vertex 24 30.7053 38.7792
      vertex 24 30.9708 39.0447
      vertex 20 30.9708 39.0447
    endloop
  endfacet
  facet normal -3.14018e-16 -0.707107 0.707107
    outer loop
      vertex 20 30.7053 38.7792
      vertex 24 30.7053 38.7792
      vertex 20 30.9708 39.0447
    endloop
  endfacet
  facet normal -2.98649e-16 -0.891006 0.453992
    outer loop
      vertex 24 30.9708 39.0447
      vertex 24 31.1413 39.3792
      vertex 20 31.1413 39.3792
    endloop
  endfacet
  facet normal -2.98649e-16 -0.891006 0.453992
    outer loop
      vertex 20 30.9708 39.0447
      vertex 24 30.9708 39.0447
      vertex 20 31.1413 39.3792
    endloop
  endfacet
  facet normal -2.54046e-16 -0.987688 0.156434
    outer loop
      vertex 24 31.1413 39.3792
      vertex 24 31.2 39.75
      vertex 20 31.2 39.75
    endloop
  endfacet
  facet normal -2.54046e-16 -0.987688 0.156434
    outer loop
      vertex 20 31.1413 39.3792
      vertex 24 31.1413 39.3792
      vertex 20 31.2 39.75
    endloop
  endfacet
  facet normal -1.84576e-16 -0.987688 -0.156434
    outer loop
      vertex 20 31.2 39.75
      vertex 24 31.2 39.75
      vertex 24 31.1413 40.1208
    endloop
  endfacet
  facet normal -1.84576e-16 -0.987688 -0.156434
    outer loop
      vertex 20 31.1413 40.1208
      vertex 20 31.2 39.75
      vertex 24 31.1413 40.1208
    endloop
  endfacet
  facet normal -9.70367e-17 -0.891006 -0.453992
    outer loop
      vertex 20 31.1413 40.1208
      vertex 24 31.1413 40.1208
      vertex 24 30.9708 40.4553
    endloop
  endfacet
  facet normal -9.70367e-17 -0.891006 -0.453992
    outer loop
      vertex 20 30.9708 40.4553
      vertex 20 31.1413 40.1208
      vertex 24 30.9708 40.4553
    endloop
  endfacet
  facet normal 0 -0.707107 -0.707107
    outer loop
      vertex 20 30.9708 40.4553
      vertex 24 30.9708 40.4553
      vertex 24 30.7053 40.7208
    endloop
  endfacet
  facet normal 0 -0.707107 -0.707107
    outer loop
      vertex 20 30.7053 40.7208
      vertex 20 30.9708 40.4553
      vertex 24 30.7053 40.7208
    endloop
  endfacet
  facet normal 9.70367e-17 -0.453992 -0.891006
    outer loop
      vertex 24 30.7053 40.7208
      vertex 24 30.3708 40.8913
      vertex 20 30.7053 40.7208
    endloop
  endfacet
  facet normal 9.70367e-17 -0.453992 -0.891006
    outer loop
      vertex 20 30.7053 40.7208
      vertex 24 30.3708 40.8913
      vertex 20 30.3708 40.8913
    endloop
  endfacet
  facet normal 1.84576e-16 -0.156434 -0.987688
    outer loop
      vertex 24 30.3708 40.8913
      vertex 24 30 40.95
      vertex 20 30.3708 40.8913
    endloop
  endfacet
  facet normal 1.84576e-16 -0.156434 -0.987688
    outer loop
      vertex 20 30.3708 40.8913
      vertex 24 30 40.95
      vertex 20 30 40.95
    endloop
  endfacet
  facet normal 2.54046e-16 0.156434 -0.987688
    outer loop
      vertex 24 30 40.95
      vertex 24 29.6292 40.8913
      vertex 20 30 40.95
    endloop
  endfacet
  facet normal 2.54046e-16 0.156434 -0.987688
    outer loop
      vertex 20 30 40.95
      vertex 24 29.6292 40.8913
      vertex 20 29.6292 40.8913
    endloop
  endfacet
  facet normal 2.98649e-16 0.453992 -0.891006
    outer loop
      vertex 24 29.6292 40.8913
      vertex 24 29.2947 40.7208
      vertex 20 29.6292 40.8913
    endloop
  endfacet
  facet normal 2.98649e-16 0.453992 -0.891006
    outer loop
      vertex 20 29.6292 40.8913
      vertex 24 29.2947 40.7208
      vertex 20 29.2947 40.7208
    endloop
  endfacet
  facet normal 3.14018e-16 0.707107 -0.707107
    outer loop
      vertex 24 29.2947 40.7208
      vertex 24 29.0292 40.4553
      vertex 20 29.2947 40.7208
    endloop
  endfacet
  facet normal 3.14018e-16 0.707107 -0.707107
    outer loop
      vertex 20 29.2947 40.7208
      vertex 24 29.0292 40.4553
      vertex 20 29.0292 40.4553
    endloop
  endfacet
  facet normal 2.98649e-16 0.891006 -0.453992
    outer loop
      vertex 24 29.0292 40.4553
      vertex 24 28.8587 40.1208
      vertex 20 29.0292 40.4553
    endloop
  endfacet
  facet normal 2.98649e-16 0.891006 -0.453992
    outer loop
      vertex 20 29.0292 40.4553
      vertex 24 28.8587 40.1208
      vertex 20 28.8587 40.1208
    endloop
  endfacet
  facet normal 2.54046e-16 0.987688 -0.156434
    outer loop
      vertex 24 28.8587 12.6208
      vertex 24 28.8 12.25
      vertex 20 28.8587 12.6208
    endloop
  endfacet
  facet normal 2.54046e-16 0.987688 -0.156434
    outer loop
      vertex 20 28.8587 12.6208
      vertex 24 28.8 12.25
      vertex 20 28.8 12.25
    endloop
  endfacet
  facet normal 1.84576e-16 0.987688 0.156434
    outer loop
      vertex 24 28.8587 11.8792
      vertex 20 28.8587 11.8792
      vertex 24 28.8 12.25
    endloop
  endfacet
  facet normal 1.84576e-16 0.987688 0.156434
    outer loop
      vertex 24 28.8 12.25
      vertex 20 28.8587 11.8792
      vertex 20 28.8 12.25
    endloop
  endfacet
  facet normal 9.70367e-17 0.891006 0.453992
    outer loop
      vertex 24 29.0292 11.5447
      vertex 20 29.0292 11.5447
      vertex 24 28.8587 11.8792
    endloop
  endfacet
  facet normal 9.70367e-17 0.891006 0.453992
    outer loop
      vertex 24 28.8587 11.8792
      vertex 20 29.0292 11.5447
      vertex 20 28.8587 11.8792
    endloop
  endfacet
  facet normal 0 0.707107 0.707107
    outer loop
      vertex 24 29.2947 11.2792
      vertex 20 29.2947 11.2792
      vertex 24 29.0292 11.5447
    endloop
  endfacet
  facet normal 0 0.707107 0.707107
    outer loop
      vertex 24 29.0292 11.5447
      vertex 20 29.2947 11.2792
      vertex 20 29.0292 11.5447
    endloop
  endfacet
  facet normal -9.70367e-17 0.453992 0.891006
    outer loop
      vertex 24 29.2947 11.2792
      vertex 24 29.6292 11.1087
      vertex 20 29.6292 11.1087
    endloop
  endfacet
  facet normal -9.70367e-17 0.453992 0.891006
    outer loop
      vertex 20 29.2947 11.2792
      vertex 24 29.2947 11.2792
      vertex 20 29.6292 11.1087
    endloop
  endfacet
  facet normal -1.84576e-16 0.156434 0.987688
    outer loop
      vertex 24 29.6292 11.1087
      vertex 24 30 11.05
      vertex 20 30 11.05
    endloop
  endfacet
  facet normal -1.84576e-16 0.156434 0.987688
    outer loop
      vertex 20 29.6292 11.1087
      vertex 24 29.6292 11.1087
      vertex 20 30 11.05
    endloop
  endfacet
  facet normal -2.54046e-16 -0.156434 0.987688
    outer loop
      vertex 24 30 11.05
      vertex 24 30.3708 11.1087
      vertex 20 30.3708 11.1087
    endloop
  endfacet
  facet normal -2.54046e-16 -0.156434 0.987688
    outer loop
      vertex 20 30 11.05
      vertex 24 30 11.05
      vertex 20 30.3708 11.1087
    endloop
  endfacet
  facet normal -2.98649e-16 -0.453992 0.891006
    outer loop
      vertex 24 30.3708 11.1087
      vertex 24 30.7053 11.2792
      vertex 20 30.7053 11.2792
    endloop
  endfacet
  facet normal -2.98649e-16 -0.453992 0.891006
    outer loop
      vertex 20 30.3708 11.1087
      vertex 24 30.3708 11.1087
      vertex 20 30.7053 11.2792
    endloop
  endfacet
  facet normal -3.14018e-16 -0.707107 0.707107
    outer loop
      vertex 24 30.7053 11.2792
      vertex 24 30.9708 11.5447
      vertex 20 30.9708 11.5447
    endloop
  endfacet
  facet normal -3.14018e-16 -0.707107 0.707107
    outer loop
      vertex 20 30.7053 11.2792
      vertex 24 30.7053 11.2792
      vertex 20 30.9708 11.5447
    endloop
  endfacet
  facet normal -2.98649e-16 -0.891006 0.453992
    outer loop
      vertex 24 30.9708 11.5447
      vertex 24 31.1413 11.8792
      vertex 20 31.1413 11.8792
    endloop
  endfacet
  facet normal -2.98649e-16 -0.891006 0.453992
    outer loop
      vertex 20 30.9708 11.5447
      vertex 24 30.9708 11.5447
      vertex 20 31.1413 11.8792
    endloop
  endfacet
  facet normal -2.54046e-16 -0.987688 0.156434
    outer loop
      vertex 24 31.1413 11.8792
      vertex 24 31.2 12.25
      vertex 20 31.2 12.25
    endloop
  endfacet
  facet normal -2.54046e-16 -0.987688 0.156434
    outer loop
      vertex 20 31.1413 11.8792
      vertex 24 31.1413 11.8792
      vertex 20 31.2 12.25
    endloop
  endfacet
  facet normal -1.84576e-16 -0.987688 -0.156434
    outer loop
      vertex 20 31.2 12.25
      vertex 24 31.2 12.25
      vertex 24 31.1413 12.6208
    endloop
  endfacet
  facet normal -1.84576e-16 -0.987688 -0.156434
    outer loop
      vertex 20 31.1413 12.6208
      vertex 20 31.2 12.25
      vertex 24 31.1413 12.6208
    endloop
  endfacet
  facet normal -9.70367e-17 -0.891006 -0.453992
    outer loop
      vertex 20 31.1413 12.6208
      vertex 24 31.1413 12.6208
      vertex 24 30.9708 12.9553
    endloop
  endfacet
  facet normal -9.70367e-17 -0.891006 -0.453992
    outer loop
      vertex 20 30.9708 12.9553
      vertex 20 31.1413 12.6208
      vertex 24 30.9708 12.9553
    endloop
  endfacet
  facet normal 0 -0.707107 -0.707107
    outer loop
      vertex 20 30.9708 12.9553
      vertex 24 30.9708 12.9553
      vertex 24 30.7053 13.2208
    endloop
  endfacet
  facet normal 0 -0.707107 -0.707107
    outer loop
      vertex 20 30.7053 13.2208
      vertex 20 30.9708 12.9553
      vertex 24 30.7053 13.2208
    endloop
  endfacet
  facet normal 9.70367e-17 -0.453992 -0.891006
    outer loop
      vertex 24 30.7053 13.2208
      vertex 24 30.3708 13.3913
      vertex 20 30.7053 13.2208
    endloop
  endfacet
  facet normal 9.70367e-17 -0.453992 -0.891006
    outer loop
      vertex 20 30.7053 13.2208
      vertex 24 30.3708 13.3913
      vertex 20 30.3708 13.3913
    endloop
  endfacet
  facet normal 1.84576e-16 -0.156434 -0.987688
    outer loop
      vertex 24 30.3708 13.3913
      vertex 24 30 13.45
      vertex 20 30.3708 13.3913
    endloop
  endfacet
  facet normal 1.84576e-16 -0.156434 -0.987688
    outer loop
      vertex 20 30.3708 13.3913
      vertex 24 30 13.45
      vertex 20 30 13.45
    endloop
  endfacet
  facet normal 2.54046e-16 0.156434 -0.987688
    outer loop
      vertex 24 30 13.45
      vertex 24 29.6292 13.3913
      vertex 20 30 13.45
    endloop
  endfacet
  facet normal 2.54046e-16 0.156434 -0.987688
    outer loop
      vertex 20 30 13.45
      vertex 24 29.6292 13.3913
      vertex 20 29.6292 13.3913
    endloop
  endfacet
  facet normal 2.98649e-16 0.453992 -0.891006
    outer loop
      vertex 24 29.6292 13.3913
      vertex 24 29.2947 13.2208
      vertex 20 29.6292 13.3913
    endloop
  endfacet
  facet normal 2.98649e-16 0.453992 -0.891006
    outer loop
      vertex 20 29.6292 13.3913
      vertex 24 29.2947 13.2208
      vertex 20 29.2947 13.2208
    endloop
  endfacet
  facet normal 3.14018e-16 0.707107 -0.707107
    outer loop
      vertex 24 29.2947 13.2208
      vertex 24 29.0292 12.9553
      vertex 20 29.2947 13.2208
    endloop
  endfacet
  facet normal 3.14018e-16 0.707107 -0.707107
    outer loop
      vertex 20 29.2947 13.2208
      vertex 24 29.0292 12.9553
      vertex 20 29.0292 12.9553
    endloop
  endfacet
  facet normal 2.98649e-16 0.891006 -0.453992
    outer loop
      vertex 24 29.0292 12.9553
      vertex 24 28.8587 12.6208
      vertex 20 29.0292 12.9553
    endloop
  endfacet
  facet normal 2.98649e-16 0.891006 -0.453992
    outer loop
      vertex 20 29.0292 12.9553
      vertex 24 28.8587 12.6208
      vertex 20 28.8587 12.6208
    endloop
  endfacet
  facet normal 0 0 -1
    outer loop
      vertex 13 23 59
      vertex 13 21 59
      vertex 4 23 59
    endloop
  endfacet
  facet normal 0 0 -1
    outer loop
      vertex 4 23 59
      vertex 13 21 59
      vertex 4 21 59
    endloop
  endfacet
  facet normal -1 0 0
    outer loop
      vertex 13 21 36.3579
      vertex 13 21 59
      vertex 13 23 59
    endloop
  endfacet
  facet normal -1 0 0
    outer loop
      vertex 13 21 36.3579
      vertex 13 23 59
      vertex 13 23 35
    endloop
  endfacet
  facet normal -1 0 0
    outer loop
      vertex 13 21 36.3579
      vertex 13 23 35
      vertex 13 4 36.3579
    endloop
  endfacet
  facet normal -1 0 0
    outer loop
      vertex 13 23 35
      vertex 13 16 35
      vertex 13 4 36.3579
    endloop
  endfacet
  facet normal -1 0 0
    outer loop
      vertex 13 16 35
      vertex 13 16 0
      vertex 13 4 36.3579
    endloop
  endfacet
  facet normal -1 0 0
    outer loop
      vertex 13 16 0
      vertex 13 4 0
      vertex 13 4 36.3579
    endloop
  endfacet
  facet normal 0 0 -1
    outer loop
      vertex 20 23 35
      vertex 20 16 35
      vertex 13 23 35
    endloop
  endfacet
  facet normal 0 0 -1
    outer loop
      vertex 13 23 35
      vertex 20 16 35
      vertex 13 16 35
    endloop
  endfacet
  facet normal -0.707107 0 0.707107
    outer loop
      vertex 18.6421 4 42
      vertex 18.6421 21 42
      vertex 13 21 36.3579
    endloop
  endfacet
  facet normal -0.707107 0 0.707107
    outer loop
      vertex 13 4 36.3579
      vertex 18.6421 4 42
      vertex 13 21 36.3579
    endloop
  endfacet
  facet normal 0 0 1
    outer loop
      vertex 19 4 42
      vertex 19 21 42
      vertex 18.6421 21 42
    endloop
  endfacet
  facet normal 0 0 1
    outer loop
      vertex 18.6421 4 42
      vertex 19 4 42
      vertex 18.6421 21 42
    endloop
  endfacet
  facet normal 0 1 0
    outer loop
      vertex 20 16 35
      vertex 20 16 0
      vertex 13 16 35
    endloop
  endfacet
  facet normal 0 1 0
    outer loop
      vertex 13 16 35
      vertex 20 16 0
      vertex 13 16 0
    endloop
  endfacet
endsolid OpenSCAD_Model
