  0
SECTION
  2
HEADER
  9
$ACADVER
  1
AC1009
  9
$INSBASE
 10
0.0
 20
0.0
 30
0.0
  9
$EXTMIN
 10
0.0
 20
0.0
 30
0.0
  9
$EXTMAX
 10
0.0
 20
0.0
 30
0.0
  0
ENDSEC
  0
SECTION
  2
TABLES
  0
TABLE
  2
VPORT
 70
0
  0
ENDTAB
  0
TABLE
  2
LTYPE
 70
1
  0
LTYPE
  2
CONTINUOUS
 70
0
  3
Solid line
 72
65
 73
0
 40
0.0
  0
ENDTAB
  0
TABLE
  2
LAYER
 70
1
  0
LAYER
  2
0
 70
64
 62
7
  6
continuous
  0
ENDTAB
  0
TABLE
  2
STYLE
 70
1
  0
STYLE
  2
STANDARD
 70
0
 40
0
 41
1.0
 50
0.0
 71
0
 42
1
 3
ARIAL.TTF
 4

  0
ENDTAB
  0
TABLE
  2
VIEW
 70
0
  0
ENDTAB
  0
ENDSEC
  0
SECTION
  2
BLOCKS
  0
BLOCK
  8
0
  2
CUT007
 70
0
 10
0.0
 20
0.0
 30
0.0
  3
CUT007
  0
LINE
  8
0
 62
0
 10
-60.0
 20
-60.0
 30
0.0
 11
-60.0
 21
240.0
 31
0.0
  0
LINE
  8
0
 62
0
 10
-60.0
 20
-60.0
 30
0.0
 11
480.0
 21
-60.0
 31
0.0
  0
LINE
  8
0
 62
0
 10
-60.0
 20
240.0
 30
0.0
 11
480.0
 21
240.0
 31
0.0
  0
LINE
  8
0
 62
0
 10
480.0
 20
-60.0
 30
0.0
 11
480.0
 21
240.0
 31
0.0
  0
CIRCLE
  8
0
 62
0
 10
278.786796564
 20
38.7867965644
 30
0.0
 40
1.8
  0
CIRCLE
  8
0
 62
0
 10
338.786796564
 20
38.7867965644
 30
0.0
 40
1.8
  0
CIRCLE
  8
0
 62
0
 10
300.0
 20
0.0
 30
0.0
 40
16.0
  0
CIRCLE
  8
0
 62
0
 10
321.213203436
 20
21.2132034356
 30
0.0
 40
1.8
  0
CIRCLE
  8
0
 62
0
 10
360.0
 20
0.0
 30
0.0
 40
16.0
  0
CIRCLE
  8
0
 62
0
 10
321.213203436
 20
81.2132034356
 30
0.0
 40
1.8
  0
CIRCLE
  8
0
 62
0
 10
300.0
 20
60.0
 30
0.0
 40
16.0
  0
CIRCLE
  8
0
 62
0
 10
360.0
 20
60.0
 30
0.0
 40
16.0
  0
CIRCLE
  8
0
 62
0
 10
338.786796564
 20
98.7867965644
 30
0.0
 40
1.8
  0
CIRCLE
  8
0
 62
0
 10
360.0
 20
120.0
 30
0.0
 40
16.0
  0
CIRCLE
  8
0
 62
0
 10
300.0
 20
120.0
 30
0.0
 40
16.0
  0
CIRCLE
  8
0
 62
0
 10
278.786796564
 20
98.7867965644
 30
0.0
 40
1.8
  0
CIRCLE
  8
0
 62
0
 10
338.786796564
 20
-21.2132034356
 30
0.0
 40
1.8
  0
CIRCLE
  8
0
 62
0
 10
278.786796564
 20
-21.2132034356
 30
0.0
 40
1.8
  0
CIRCLE
  8
0
 62
0
 10
158.786796564
 20
-21.2132034356
 30
0.0
 40
1.8
  0
CIRCLE
  8
0
 62
0
 10
338.786796564
 20
158.786796564
 30
0.0
 40
1.8
  0
CIRCLE
  8
0
 62
0
 10
278.786796564
 20
158.786796564
 30
0.0
 40
1.8
  0
CIRCLE
  8
0
 62
0
 10
321.213203436
 20
141.213203436
 30
0.0
 40
1.8
  0
CIRCLE
  8
0
 62
0
 10
-21.2132034356
 20
158.786796564
 30
0.0
 40
1.8
  0
CIRCLE
  8
0
 62
0
 10
0.0
 20
120.0
 30
0.0
 40
16.0
  0
CIRCLE
  8
0
 62
0
 10
-21.2132034356
 20
98.7867965644
 30
0.0
 40
1.8
  0
CIRCLE
  8
0
 62
0
 10
0.0
 20
0.0
 30
0.0
 40
16.0
  0
CIRCLE
  8
0
 62
0
 10
-21.2132034356
 20
38.7867965644
 30
0.0
 40
1.8
  0
CIRCLE
  8
0
 62
0
 10
0.0
 20
60.0
 30
0.0
 40
16.0
  0
CIRCLE
  8
0
 62
0
 10
38.7867965644
 20
158.786796564
 30
0.0
 40
1.8
  0
CIRCLE
  8
0
 62
0
 10
81.2132034356
 20
141.213203436
 30
0.0
 40
1.8
  0
CIRCLE
  8
0
 62
0
 10
38.7867965644
 20
98.7867965644
 30
0.0
 40
1.8
  0
CIRCLE
  8
0
 62
0
 10
60.0
 20
120.0
 30
0.0
 40
16.0
  0
CIRCLE
  8
0
 62
0
 10
81.2132034356
 20
81.2132034356
 30
0.0
 40
1.8
  0
CIRCLE
  8
0
 62
0
 10
38.7867965644
 20
38.7867965644
 30
0.0
 40
1.8
  0
CIRCLE
  8
0
 62
0
 10
60.0
 20
60.0
 30
0.0
 40
16.0
  0
CIRCLE
  8
0
 62
0
 10
21.2132034356
 20
81.2132034356
 30
0.0
 40
1.8
  0
CIRCLE
  8
0
 62
0
 10
21.2132034356
 20
141.213203436
 30
0.0
 40
1.8
  0
CIRCLE
  8
0
 62
0
 10
60.0
 20
0.0
 30
0.0
 40
16.0
  0
CIRCLE
  8
0
 62
0
 10
21.2132034356
 20
21.2132034356
 30
0.0
 40
1.8
  0
CIRCLE
  8
0
 62
0
 10
81.2132034356
 20
21.2132034356
 30
0.0
 40
1.8
  0
CIRCLE
  8
0
 62
0
 10
201.213203436
 20
141.213203436
 30
0.0
 40
1.8
  0
CIRCLE
  8
0
 62
0
 10
141.213203436
 20
141.213203436
 30
0.0
 40
1.8
  0
CIRCLE
  8
0
 62
0
 10
98.7867965644
 20
158.786796564
 30
0.0
 40
1.8
  0
CIRCLE
  8
0
 62
0
 10
158.786796564
 20
158.786796564
 30
0.0
 40
1.8
  0
CIRCLE
  8
0
 62
0
 10
141.213203436
 20
81.2132034356
 30
0.0
 40
1.8
  0
CIRCLE
  8
0
 62
0
 10
158.786796564
 20
98.7867965644
 30
0.0
 40
1.8
  0
CIRCLE
  8
0
 62
0
 10
180.0
 20
120.0
 30
0.0
 40
16.0
  0
CIRCLE
  8
0
 62
0
 10
120.0
 20
120.0
 30
0.0
 40
16.0
  0
CIRCLE
  8
0
 62
0
 10
201.213203436
 20
81.2132034356
 30
0.0
 40
1.8
  0
CIRCLE
  8
0
 62
0
 10
98.7867965644
 20
98.7867965644
 30
0.0
 40
1.8
  0
CIRCLE
  8
0
 62
0
 10
120.0
 20
60.0
 30
0.0
 40
16.0
  0
CIRCLE
  8
0
 62
0
 10
180.0
 20
60.0
 30
0.0
 40
16.0
  0
CIRCLE
  8
0
 62
0
 10
201.213203436
 20
21.2132034356
 30
0.0
 40
1.8
  0
CIRCLE
  8
0
 62
0
 10
158.786796564
 20
38.7867965644
 30
0.0
 40
1.8
  0
CIRCLE
  8
0
 62
0
 10
98.7867965644
 20
38.7867965644
 30
0.0
 40
1.8
  0
CIRCLE
  8
0
 62
0
 10
141.213203436
 20
21.2132034356
 30
0.0
 40
1.8
  0
CIRCLE
  8
0
 62
0
 10
180.0
 20
0.0
 30
0.0
 40
16.0
  0
CIRCLE
  8
0
 62
0
 10
120.0
 20
0.0
 30
0.0
 40
16.0
  0
CIRCLE
  8
0
 62
0
 10
261.213203436
 20
141.213203436
 30
0.0
 40
1.8
  0
CIRCLE
  8
0
 62
0
 10
240.0
 20
120.0
 30
0.0
 40
16.0
  0
CIRCLE
  8
0
 62
0
 10
218.786796564
 20
98.7867965644
 30
0.0
 40
1.8
  0
CIRCLE
  8
0
 62
0
 10
240.0
 20
0.0
 30
0.0
 40
16.0
  0
CIRCLE
  8
0
 62
0
 10
261.213203436
 20
21.2132034356
 30
0.0
 40
1.8
  0
CIRCLE
  8
0
 62
0
 10
261.213203436
 20
81.2132034356
 30
0.0
 40
1.8
  0
CIRCLE
  8
0
 62
0
 10
240.0
 20
60.0
 30
0.0
 40
16.0
  0
CIRCLE
  8
0
 62
0
 10
218.786796564
 20
38.7867965644
 30
0.0
 40
1.8
  0
CIRCLE
  8
0
 62
0
 10
218.786796564
 20
158.786796564
 30
0.0
 40
1.8
  0
CIRCLE
  8
0
 62
0
 10
-21.2132034356
 20
-21.2132034356
 30
0.0
 40
1.8
  0
CIRCLE
  8
0
 62
0
 10
38.7867965644
 20
-21.2132034356
 30
0.0
 40
1.8
  0
CIRCLE
  8
0
 62
0
 10
218.786796564
 20
-21.2132034356
 30
0.0
 40
1.8
  0
CIRCLE
  8
0
 62
0
 10
98.7867965644
 20
-21.2132034356
 30
0.0
 40
1.8
  0
CIRCLE
  8
0
 62
0
 10
420.0
 20
60.0
 30
0.0
 40
16.0
  0
CIRCLE
  8
0
 62
0
 10
381.213203436
 20
21.2132034356
 30
0.0
 40
1.8
  0
CIRCLE
  8
0
 62
0
 10
398.786796564
 20
38.7867965644
 30
0.0
 40
1.8
  0
CIRCLE
  8
0
 62
0
 10
381.213203436
 20
141.213203436
 30
0.0
 40
1.8
  0
CIRCLE
  8
0
 62
0
 10
398.786796564
 20
98.7867965644
 30
0.0
 40
1.8
  0
CIRCLE
  8
0
 62
0
 10
381.213203436
 20
81.2132034356
 30
0.0
 40
1.8
  0
CIRCLE
  8
0
 62
0
 10
420.0
 20
120.0
 30
0.0
 40
16.0
  0
CIRCLE
  8
0
 62
0
 10
398.786796564
 20
158.786796564
 30
0.0
 40
1.8
  0
CIRCLE
  8
0
 62
0
 10
420.0
 20
0.0
 30
0.0
 40
16.0
  0
CIRCLE
  8
0
 62
0
 10
398.786796564
 20
-21.2132034356
 30
0.0
 40
1.8
  0
CIRCLE
  8
0
 62
0
 10
321.213203436
 20
201.213203436
 30
0.0
 40
1.8
  0
CIRCLE
  8
0
 62
0
 10
261.213203436
 20
201.213203436
 30
0.0
 40
1.8
  0
CIRCLE
  8
0
 62
0
 10
201.213203436
 20
201.213203436
 30
0.0
 40
1.8
  0
CIRCLE
  8
0
 62
0
 10
21.2132034356
 20
201.213203436
 30
0.0
 40
1.8
  0
CIRCLE
  8
0
 62
0
 10
81.2132034356
 20
201.213203436
 30
0.0
 40
1.8
  0
CIRCLE
  8
0
 62
0
 10
141.213203436
 20
201.213203436
 30
0.0
 40
1.8
  0
CIRCLE
  8
0
 62
0
 10
120.0
 20
180.0
 30
0.0
 40
16.0
  0
CIRCLE
  8
0
 62
0
 10
240.0
 20
180.0
 30
0.0
 40
16.0
  0
CIRCLE
  8
0
 62
0
 10
180.0
 20
180.0
 30
0.0
 40
16.0
  0
CIRCLE
  8
0
 62
0
 10
60.0
 20
180.0
 30
0.0
 40
16.0
  0
CIRCLE
  8
0
 62
0
 10
300.0
 20
180.0
 30
0.0
 40
16.0
  0
CIRCLE
  8
0
 62
0
 10
420.0
 20
180.0
 30
0.0
 40
16.0
  0
CIRCLE
  8
0
 62
0
 10
381.213203436
 20
201.213203436
 30
0.0
 40
1.8
  0
CIRCLE
  8
0
 62
0
 10
360.0
 20
180.0
 30
0.0
 40
16.0
  0
CIRCLE
  8
0
 62
0
 10
0.0
 20
180.0
 30
0.0
 40
16.0
  0
CIRCLE
  8
0
 62
0
 10
441.213203436
 20
201.213203436
 30
0.0
 40
1.8
  0
CIRCLE
  8
0
 62
0
 10
441.213203436
 20
141.213203436
 30
0.0
 40
1.8
  0
CIRCLE
  8
0
 62
0
 10
441.213203436
 20
81.2132034356
 30
0.0
 40
1.8
  0
CIRCLE
  8
0
 62
0
 10
441.213203436
 20
21.2132034356
 30
0.0
 40
1.8
  0
CIRCLE
  8
0
 62
0
 10
470.0
 20
-50.0
 30
0.0
 40
1.8
  0
CIRCLE
  8
0
 62
0
 10
470.0
 20
230.0
 30
0.0
 40
1.8
  0
CIRCLE
  8
0
 62
0
 10
-50.0
 20
-50.0
 30
0.0
 40
1.8
  0
CIRCLE
  8
0
 62
0
 10
-50.0
 20
230.0
 30
0.0
 40
1.8
  0
ENDBLK
  0
ENDSEC
  0
SECTION
  2
ENTITIES
  0
INSERT
  2
CUT007
  8
0
 10
0.0
 20
0.0
 30
0.0
  0
ENDSEC
  0
EOF
